<?xml version="1.0" encoding="UTF-8"?>
<!DOCTYPE svg PUBLIC "-//W3C//DTD SVG 1.1//EN" "http://www.w3.org/Graphics/SVG/1.1/DTD/svg11.dtd">
<!-- Creator: CorelDRAW X5 -->
<svg xmlns="http://www.w3.org/2000/svg" xml:space="preserve" style="shape-rendering:geometricPrecision; text-rendering:geometricPrecision; image-rendering:optimizeQuality; fill-rule:evenodd; clip-rule:evenodd"
viewBox="0 0 18270 29220"
 xmlns:xlink="http://www.w3.org/1999/xlink">
 <defs>
  <style type="text/css">
   <![CDATA[
    .black {fill:#2B2A29}
    .white {fill:#FEFEFE}
    .red {fill:#E31E24}
   ]]>
  </style>
 </defs>
 <g>
  <path class="black" d="M2346 -3l13578 0c1289,0 2344,1102 2344,2448l0 24330c0,1346 -1055,2448 -2344,2448l-13578 0c-1289,0 -2344,-1102 -2344,-2448l0 -24330c0,-1346 1055,-2448 2344,-2448z"/>
  <path class="white" d="M2411 403l13447 0c1112,0 2021,950 2021,2111l0 24193c0,1161 -909,2111 -2021,2111l-13447 0c-1112,0 -2021,-950 -2021,-2111l0 -24193c0,-1161 909,-2111 2021,-2111zm4369 19698c70,-137 145,-238 258,-345 130,-112 242,-166 411,-193 167,-19 295,4 452,59 175,68 300,148 445,266 302,264 491,541 613,924 52,188 70,336 51,530 -25,194 -76,333 -184,496 -198,278 -401,454 -699,620 -301,155 -558,225 -897,234 -344,-4 -595,-74 -890,-253 -339,-229 -526,-481 -705,-846 -135,-297 -219,-547 -260,-872 -27,-263 -17,-464 47,-720 141,-481 368,-784 722,-1129 347,-321 685,-557 1084,-805 370,-227 750,-452 1057,-763 432,-470 800,-1002 1129,-1548 152,-268 845,-1594 634,-1908 -274,284 -843,1238 -1099,1601 -355,492 -726,971 -1126,1426 -279,301 -754,622 -1086,877 -332,258 -621,499 -912,806 -383,427 -622,795 -754,1360 -58,305 -60,540 -14,847 64,356 167,627 329,949 217,405 440,679 833,921 340,191 625,260 1014,253 371,-21 648,-105 973,-283 317,-188 529,-381 736,-687 117,-187 171,-343 194,-561 16,-211 -7,-374 -67,-576 -137,-403 -339,-690 -663,-965 -155,-123 -290,-205 -476,-274 -172,-59 -312,-80 -493,-58 -185,31 -309,94 -450,218 -101,95 -166,184 -236,304 -45,82 -81,160 -114,247 -74,211 -79,383 -26,600 57,198 140,343 291,485 73,64 136,105 225,142 90,35 161,48 258,47 105,-5 182,-26 277,-70 115,-57 194,-120 286,-210 69,-72 113,-135 144,-230 21,-77 22,-135 4,-213 -20,-73 -48,-126 -95,-185 -48,-58 -95,-98 -159,-137 -59,-34 -113,-55 -181,-65 -58,-7 -104,-4 -158,21 -25,13 -42,25 -61,46 -21,24 -35,45 -48,74 -34,85 -38,164 -34,255 -3,-89 2,-170 38,-253 13,-28 27,-50 48,-72 19,-19 36,-31 60,-43 53,-23 97,-25 154,-18 67,11 117,32 175,67 63,40 106,78 153,136 44,59 70,108 88,179 16,73 14,129 -7,201 -30,90 -75,149 -141,216 -89,86 -168,146 -280,199 -91,40 -164,59 -263,62 -90,0 -157,-14 -240,-48 -84,-37 -142,-76 -210,-137 -141,-137 -217,-275 -268,-464 -46,-203 -39,-365 33,-561 25,-61 49,-117 80,-175zm580 710l0 4 0 -4zm4129 -11691c-70,137 -145,238 -258,345 -130,112 -241,166 -411,193 -167,19 -295,-4 -452,-59 -175,-68 -300,-148 -445,-266 -303,-264 -491,-541 -613,-925 -52,-187 -70,-336 -51,-530 25,-194 76,-333 184,-496 198,-278 401,-454 699,-620 301,-155 558,-225 897,-234 344,4 595,74 890,253 339,229 526,481 705,846 135,297 219,547 260,872 27,263 17,464 -47,720 -141,481 -368,784 -722,1129 -347,321 -685,557 -1084,805 -370,227 -750,452 -1057,763 -432,470 -800,1002 -1129,1548 -151,268 -845,1594 -634,1908 274,-284 843,-1238 1099,-1601 355,-492 726,-971 1126,-1426 279,-301 754,-622 1086,-877 332,-258 621,-499 911,-806 384,-427 622,-795 754,-1360 58,-305 60,-540 14,-847 -64,-356 -167,-627 -328,-949 -217,-405 -440,-679 -833,-921 -340,-191 -625,-260 -1014,-253 -371,21 -648,105 -973,283 -317,188 -528,381 -736,687 -117,187 -171,342 -194,561 -16,211 7,374 67,576 137,403 339,690 663,965 155,123 290,205 476,274 172,59 312,80 493,57 185,-31 309,-94 450,-218 101,-95 166,-184 235,-304 46,-82 81,-160 114,-247 74,-211 79,-383 26,-599 -57,-198 -140,-343 -291,-485 -73,-64 -136,-105 -225,-142 -90,-35 -161,-48 -258,-47 -105,5 -182,26 -277,70 -115,57 -194,120 -286,210 -69,72 -114,135 -144,230 -21,77 -22,135 -4,213 20,73 48,126 95,185 48,58 95,98 159,137 59,34 113,55 181,65 58,7 104,4 158,-21 25,-13 42,-25 61,-46 21,-24 35,-45 48,-74 34,-85 38,-164 34,-255 3,89 -2,170 -38,253 -13,28 -27,50 -48,72 -19,19 -36,31 -60,43 -53,23 -97,25 -154,18 -67,-11 -117,-32 -175,-67 -63,-40 -106,-78 -152,-136 -44,-59 -70,-108 -89,-179 -16,-73 -14,-129 7,-201 30,-90 75,-149 141,-216 89,-86 168,-146 280,-199 91,-40 164,-59 264,-62 90,0 157,14 240,48 84,37 142,76 210,137 141,137 217,275 268,464 46,203 39,365 -33,561 -25,61 -50,117 -80,175zm-580 -711l0 -4 0 4z"/>
 </g>
	  <g id="Spades">
   <path class="black" d="M4292 13291c-563,0 -559,0 -1097,-100 -69,-243 -69,-243 -69,-585 770,604 862,143 970,-1380 -232,398 -629,695 -970,695 -518,0 -1166,-373 -1166,-1370 0,-1370 2332,-1370 2332,-2740 0,1370 2332,1370 2332,2740 0,996 -648,1370 -1166,1370 -341,0 -738,-297 -970,-695 108,1523 199,1984 970,1380 0,343 0,343 -69,585 -538,100 -534,100 -1097,100z"/>
   <path class="black" d="M13977 15929c563,0 559,0 1097,100 69,243 69,243 69,585 -770,-604 -862,-143 -970,1380 232,-398 629,-695 970,-695 518,0 1166,373 1166,1370 0,1370 -2332,1370 -2332,2740 0,-1370 -2332,-1370 -2332,-2740 0,-997 648,-1370 1166,-1370 341,0 738,297 970,695 -108,-1524 -200,-1984 -970,-1380 0,-343 0,-343 69,-585 538,-100 534,-100 1097,-100z"/>
  </g>
	<g id="J">
   <path class="black" d="M4640 2961c0,-189 -24,-307 -74,-355 -49,-48 -177,-73 -382,-73l-323 0 0 -522 2436 0 0 522 -209 0c-204,0 -331,24 -381,73 -49,48 -74,167 -74,355l0 2202c0,332 -26,584 -80,756 -54,170 -144,321 -270,451 -125,131 -292,231 -498,302 -207,70 -435,106 -684,106 -431,0 -783,-108 -1058,-326 -274,-216 -411,-492 -411,-827 0,-216 58,-385 174,-507 115,-123 275,-184 476,-184 162,0 294,51 398,152 103,101 155,230 155,388 0,153 -39,276 -116,369 -77,93 -194,159 -348,197 87,73 174,124 261,158 86,32 181,48 284,48 268,0 456,-68 562,-204 108,-136 162,-385 162,-746l0 -2335z"/>
   <path class="black" d="M13630 26259c0,189 24,307 74,355 49,48 177,73 382,73l323 0 0 522 -2436 0 0 -522 209 0c204,0 331,-24 381,-73 49,-48 74,-167 74,-355l0 -2203c0,-332 26,-584 80,-756 54,-170 144,-321 270,-451 125,-131 292,-231 498,-303 207,-70 435,-106 684,-106 431,0 783,108 1058,325 274,216 411,492 411,827 0,216 -58,385 -174,507 -115,123 -275,184 -476,184 -162,0 -294,-51 -398,-152 -103,-101 -155,-230 -155,-388 0,-153 39,-276 116,-369 77,-93 194,-159 348,-197 -87,-72 -174,-124 -261,-158 -86,-32 -181,-48 -284,-48 -268,0 -456,68 -562,204 -108,136 -162,385 -162,746l0 2335z"/>
  </g>

</svg>
