<?xml version="1.0" encoding="UTF-8"?>
<!DOCTYPE svg PUBLIC "-//W3C//DTD SVG 1.1//EN" "http://www.w3.org/Graphics/SVG/1.1/DTD/svg11.dtd">
<!-- Creator: CorelDRAW X5 -->
<svg xmlns="http://www.w3.org/2000/svg" xml:space="preserve" style="shape-rendering:geometricPrecision; text-rendering:geometricPrecision; image-rendering:optimizeQuality; fill-rule:evenodd; clip-rule:evenodd"
viewBox="0 0 18270 29220"
 xmlns:xlink="http://www.w3.org/1999/xlink">
 <defs>
  <style type="text/css">
   <![CDATA[
    .black {fill:#2B2A29}
    .white {fill:#FEFEFE}
    .red {fill:#E31E24}
   ]]>
  </style>
 </defs>
 <g>
  <path class="black" d="M2346 -3l13578 0c1289,0 2344,1102 2344,2448l0 24330c0,1346 -1055,2448 -2344,2448l-13578 0c-1289,0 -2344,-1102 -2344,-2448l0 -24330c0,-1346 1055,-2448 2344,-2448z"/>
  <path class="white" d="M2411 403l13447 0c1112,0 2021,950 2021,2111l0 24193c0,1161 -909,2111 -2021,2111l-13447 0c-1112,0 -2021,-950 -2021,-2111l0 -24193c0,-1161 909,-2111 2021,-2111zm4369 19698c70,-137 145,-238 258,-345 130,-112 242,-166 411,-193 167,-19 295,4 452,59 175,68 300,148 445,266 302,264 491,541 613,924 52,188 70,336 51,530 -25,194 -76,333 -184,496 -198,278 -401,454 -699,620 -301,155 -558,225 -897,234 -344,-4 -595,-74 -890,-253 -339,-229 -526,-481 -705,-846 -135,-297 -219,-547 -260,-872 -27,-263 -17,-464 47,-720 141,-481 368,-784 722,-1129 347,-321 685,-557 1084,-805 370,-227 750,-452 1057,-763 432,-470 800,-1002 1129,-1548 152,-268 845,-1594 634,-1908 -274,284 -843,1238 -1099,1601 -355,492 -726,971 -1126,1426 -279,301 -754,622 -1086,877 -332,258 -621,499 -912,806 -383,427 -622,795 -754,1360 -58,305 -60,540 -14,847 64,356 167,627 329,949 217,405 440,679 833,921 340,191 625,260 1014,253 371,-21 648,-105 973,-283 317,-188 529,-381 736,-687 117,-187 171,-343 194,-561 16,-211 -7,-374 -67,-576 -137,-403 -339,-690 -663,-965 -155,-123 -290,-205 -476,-274 -172,-59 -312,-80 -493,-58 -185,31 -309,94 -450,218 -101,95 -166,184 -236,304 -45,82 -81,160 -114,247 -74,211 -79,383 -26,600 57,198 140,343 291,485 73,64 136,105 225,142 90,35 161,48 258,47 105,-5 182,-26 277,-70 115,-57 194,-120 286,-210 69,-72 113,-135 144,-230 21,-77 22,-135 4,-213 -20,-73 -48,-126 -95,-185 -48,-58 -95,-98 -159,-137 -59,-34 -113,-55 -181,-65 -58,-7 -104,-4 -158,21 -25,13 -42,25 -61,46 -21,24 -35,45 -48,74 -34,85 -38,164 -34,255 -3,-89 2,-170 38,-253 13,-28 27,-50 48,-72 19,-19 36,-31 60,-43 53,-23 97,-25 154,-18 67,11 117,32 175,67 63,40 106,78 153,136 44,59 70,108 88,179 16,73 14,129 -7,201 -30,90 -75,149 -141,216 -89,86 -168,146 -280,199 -91,40 -164,59 -263,62 -90,0 -157,-14 -240,-48 -84,-37 -142,-76 -210,-137 -141,-137 -217,-275 -268,-464 -46,-203 -39,-365 33,-561 25,-61 49,-117 80,-175zm580 710l0 4 0 -4zm4129 -11691c-70,137 -145,238 -258,345 -130,112 -241,166 -411,193 -167,19 -295,-4 -452,-59 -175,-68 -300,-148 -445,-266 -303,-264 -491,-541 -613,-925 -52,-187 -70,-336 -51,-530 25,-194 76,-333 184,-496 198,-278 401,-454 699,-620 301,-155 558,-225 897,-234 344,4 595,74 890,253 339,229 526,481 705,846 135,297 219,547 260,872 27,263 17,464 -47,720 -141,481 -368,784 -722,1129 -347,321 -685,557 -1084,805 -370,227 -750,452 -1057,763 -432,470 -800,1002 -1129,1548 -151,268 -845,1594 -634,1908 274,-284 843,-1238 1099,-1601 355,-492 726,-971 1126,-1426 279,-301 754,-622 1086,-877 332,-258 621,-499 911,-806 384,-427 622,-795 754,-1360 58,-305 60,-540 14,-847 -64,-356 -167,-627 -328,-949 -217,-405 -440,-679 -833,-921 -340,-191 -625,-260 -1014,-253 -371,21 -648,105 -973,283 -317,188 -528,381 -736,687 -117,187 -171,342 -194,561 -16,211 7,374 67,576 137,403 339,690 663,965 155,123 290,205 476,274 172,59 312,80 493,57 185,-31 309,-94 450,-218 101,-95 166,-184 235,-304 46,-82 81,-160 114,-247 74,-211 79,-383 26,-599 -57,-198 -140,-343 -291,-485 -73,-64 -136,-105 -225,-142 -90,-35 -161,-48 -258,-47 -105,5 -182,26 -277,70 -115,57 -194,120 -286,210 -69,72 -114,135 -144,230 -21,77 -22,135 -4,213 20,73 48,126 95,185 48,58 95,98 159,137 59,34 113,55 181,65 58,7 104,4 158,-21 25,-13 42,-25 61,-46 21,-24 35,-45 48,-74 34,-85 38,-164 34,-255 3,89 -2,170 -38,253 -13,28 -27,50 -48,72 -19,19 -36,31 -60,43 -53,23 -97,25 -154,18 -67,-11 -117,-32 -175,-67 -63,-40 -106,-78 -152,-136 -44,-59 -70,-108 -89,-179 -16,-73 -14,-129 7,-201 30,-90 75,-149 141,-216 89,-86 168,-146 280,-199 91,-40 164,-59 264,-62 90,0 157,14 240,48 84,37 142,76 210,137 141,137 217,275 268,464 46,203 39,365 -33,561 -25,61 -50,117 -80,175zm-580 -711l0 -4 0 4z"/>
 </g>
	 <g id="Hearts">
   <path class="red" d="M4292 9155c0,-704 -583,-1370 -1166,-1370 -583,0 -1166,685 -1166,1370 0,1370 2332,2740 2332,4110 0,-1370 2332,-2740 2332,-4110 0,-685 -583,-1370 -1166,-1370 -583,0 -1166,666 -1166,1370z"/>
   <path class="red" d="M13977 20065c0,704 583,1370 1166,1370 583,0 1166,-685 1166,-1370 0,-1370 -2332,-2740 -2332,-4110 0,1370 -2332,2740 -2332,4110 0,685 583,1370 1166,1370 583,0 1166,-666 1166,-1370z"/>
  </g>
	<g id="_9">
   <path class="red" d="M3498 6218c85,54 171,94 256,120 85,26 177,39 276,39 342,0 595,-131 760,-392 164,-262 250,-667 254,-1216 -173,132 -350,231 -529,297 -180,66 -372,98 -576,98 -420,0 -769,-129 -1049,-385 -279,-258 -420,-576 -420,-956 0,-445 161,-801 482,-1071 321,-270 749,-405 1284,-405 591,0 1048,189 1371,565 323,376 485,905 485,1588 0,714 -179,1275 -539,1685 -359,408 -853,613 -1481,613 -391,0 -713,-85 -965,-257 -253,-170 -379,-382 -379,-633 0,-158 54,-285 162,-384 107,-99 246,-148 417,-148 148,0 268,43 361,126 93,84 140,191 140,322 0,94 -25,174 -76,239 -51,64 -129,116 -235,154zm1493 -2477c0,-285 -64,-503 -193,-654 -130,-152 -314,-228 -554,-228 -238,0 -421,73 -547,217 -128,145 -191,354 -191,628 0,281 68,495 202,642 135,147 330,221 587,221 213,0 383,-74 508,-222 125,-148 189,-350 189,-604z"/>
   <path class="red" d="M14772 23002c-85,-54 -171,-94 -257,-120 -85,-26 -177,-39 -276,-39 -342,0 -595,131 -760,392 -164,262 -250,667 -254,1216 172,-132 350,-231 529,-297 179,-65 371,-98 576,-98 420,0 769,129 1049,385 280,258 420,576 420,956 0,445 -161,802 -482,1071 -321,270 -749,405 -1284,405 -591,0 -1048,-189 -1371,-565 -323,-376 -485,-905 -485,-1588 0,-714 179,-1275 539,-1685 359,-408 853,-613 1481,-613 391,0 713,85 965,256 253,170 379,382 379,633 0,158 -54,285 -162,384 -107,99 -246,148 -418,148 -148,0 -268,-43 -361,-126 -93,-84 -140,-191 -140,-322 0,-94 25,-174 76,-239 51,-64 129,-116 235,-154zm-1493 2477c0,285 64,503 193,654 130,152 314,228 554,228 238,0 421,-73 547,-217 128,-145 191,-354 191,-628 0,-281 -68,-495 -202,-642 -134,-147 -330,-221 -587,-221 -213,0 -383,74 -508,222 -125,148 -189,350 -189,604z"/>
  </g>

</svg>
