<?xml version="1.0" encoding="UTF-8"?>
<!DOCTYPE svg PUBLIC "-//W3C//DTD SVG 1.1//EN" "http://www.w3.org/Graphics/SVG/1.1/DTD/svg11.dtd">
<!-- Creator: CorelDRAW X5 -->
<svg xmlns="http://www.w3.org/2000/svg" xml:space="preserve" style="shape-rendering:geometricPrecision; text-rendering:geometricPrecision; image-rendering:optimizeQuality; fill-rule:evenodd; clip-rule:evenodd"
viewBox="0 0 18270 29220"
 xmlns:xlink="http://www.w3.org/1999/xlink">
 <defs>
  <style type="text/css">
   <![CDATA[
    .black {fill:#2B2A29}
    .white {fill:#FEFEFE}
    .red {fill:#E31E24}
   ]]>
  </style>
 </defs>
 <g>
  <path class="black" d="M2346 -3l13578 0c1289,0 2344,1102 2344,2448l0 24330c0,1346 -1055,2448 -2344,2448l-13578 0c-1289,0 -2344,-1102 -2344,-2448l0 -24330c0,-1346 1055,-2448 2344,-2448z"/>
  <path class="white" d="M2411 403l13447 0c1112,0 2021,950 2021,2111l0 24193c0,1161 -909,2111 -2021,2111l-13447 0c-1112,0 -2021,-950 -2021,-2111l0 -24193c0,-1161 909,-2111 2021,-2111zm4369 19698c70,-137 145,-238 258,-345 130,-112 242,-166 411,-193 167,-19 295,4 452,59 175,68 300,148 445,266 302,264 491,541 613,924 52,188 70,336 51,530 -25,194 -76,333 -184,496 -198,278 -401,454 -699,620 -301,155 -558,225 -897,234 -344,-4 -595,-74 -890,-253 -339,-229 -526,-481 -705,-846 -135,-297 -219,-547 -260,-872 -27,-263 -17,-464 47,-720 141,-481 368,-784 722,-1129 347,-321 685,-557 1084,-805 370,-227 750,-452 1057,-763 432,-470 800,-1002 1129,-1548 152,-268 845,-1594 634,-1908 -274,284 -843,1238 -1099,1601 -355,492 -726,971 -1126,1426 -279,301 -754,622 -1086,877 -332,258 -621,499 -912,806 -383,427 -622,795 -754,1360 -58,305 -60,540 -14,847 64,356 167,627 329,949 217,405 440,679 833,921 340,191 625,260 1014,253 371,-21 648,-105 973,-283 317,-188 529,-381 736,-687 117,-187 171,-343 194,-561 16,-211 -7,-374 -67,-576 -137,-403 -339,-690 -663,-965 -155,-123 -290,-205 -476,-274 -172,-59 -312,-80 -493,-58 -185,31 -309,94 -450,218 -101,95 -166,184 -236,304 -45,82 -81,160 -114,247 -74,211 -79,383 -26,600 57,198 140,343 291,485 73,64 136,105 225,142 90,35 161,48 258,47 105,-5 182,-26 277,-70 115,-57 194,-120 286,-210 69,-72 113,-135 144,-230 21,-77 22,-135 4,-213 -20,-73 -48,-126 -95,-185 -48,-58 -95,-98 -159,-137 -59,-34 -113,-55 -181,-65 -58,-7 -104,-4 -158,21 -25,13 -42,25 -61,46 -21,24 -35,45 -48,74 -34,85 -38,164 -34,255 -3,-89 2,-170 38,-253 13,-28 27,-50 48,-72 19,-19 36,-31 60,-43 53,-23 97,-25 154,-18 67,11 117,32 175,67 63,40 106,78 153,136 44,59 70,108 88,179 16,73 14,129 -7,201 -30,90 -75,149 -141,216 -89,86 -168,146 -280,199 -91,40 -164,59 -263,62 -90,0 -157,-14 -240,-48 -84,-37 -142,-76 -210,-137 -141,-137 -217,-275 -268,-464 -46,-203 -39,-365 33,-561 25,-61 49,-117 80,-175zm580 710l0 4 0 -4zm4129 -11691c-70,137 -145,238 -258,345 -130,112 -241,166 -411,193 -167,19 -295,-4 -452,-59 -175,-68 -300,-148 -445,-266 -303,-264 -491,-541 -613,-925 -52,-187 -70,-336 -51,-530 25,-194 76,-333 184,-496 198,-278 401,-454 699,-620 301,-155 558,-225 897,-234 344,4 595,74 890,253 339,229 526,481 705,846 135,297 219,547 260,872 27,263 17,464 -47,720 -141,481 -368,784 -722,1129 -347,321 -685,557 -1084,805 -370,227 -750,452 -1057,763 -432,470 -800,1002 -1129,1548 -151,268 -845,1594 -634,1908 274,-284 843,-1238 1099,-1601 355,-492 726,-971 1126,-1426 279,-301 754,-622 1086,-877 332,-258 621,-499 911,-806 384,-427 622,-795 754,-1360 58,-305 60,-540 14,-847 -64,-356 -167,-627 -328,-949 -217,-405 -440,-679 -833,-921 -340,-191 -625,-260 -1014,-253 -371,21 -648,105 -973,283 -317,188 -528,381 -736,687 -117,187 -171,342 -194,561 -16,211 7,374 67,576 137,403 339,690 663,965 155,123 290,205 476,274 172,59 312,80 493,57 185,-31 309,-94 450,-218 101,-95 166,-184 235,-304 46,-82 81,-160 114,-247 74,-211 79,-383 26,-599 -57,-198 -140,-343 -291,-485 -73,-64 -136,-105 -225,-142 -90,-35 -161,-48 -258,-47 -105,5 -182,26 -277,70 -115,57 -194,120 -286,210 -69,72 -114,135 -144,230 -21,77 -22,135 -4,213 20,73 48,126 95,185 48,58 95,98 159,137 59,34 113,55 181,65 58,7 104,4 158,-21 25,-13 42,-25 61,-46 21,-24 35,-45 48,-74 34,-85 38,-164 34,-255 3,89 -2,170 -38,253 -13,28 -27,50 -48,72 -19,19 -36,31 -60,43 -53,23 -97,25 -154,18 -67,-11 -117,-32 -175,-67 -63,-40 -106,-78 -152,-136 -44,-59 -70,-108 -89,-179 -16,-73 -14,-129 7,-201 30,-90 75,-149 141,-216 89,-86 168,-146 280,-199 91,-40 164,-59 264,-62 90,0 157,14 240,48 84,37 142,76 210,137 141,137 217,275 268,464 46,203 39,365 -33,561 -25,61 -50,117 -80,175zm-580 -711l0 -4 0 4z"/>
 </g>
	 <g id="Hearts">
   <path class="red" d="M4292 9155c0,-704 -583,-1370 -1166,-1370 -583,0 -1166,685 -1166,1370 0,1370 2332,2740 2332,4110 0,-1370 2332,-2740 2332,-4110 0,-685 -583,-1370 -1166,-1370 -583,0 -1166,666 -1166,1370z"/>
   <path class="red" d="M13977 20065c0,704 583,1370 1166,1370 583,0 1166,-685 1166,-1370 0,-1370 -2332,-2740 -2332,-4110 0,1370 -2332,2740 -2332,4110 0,685 583,1370 1166,1370 583,0 1166,-666 1166,-1370z"/>
  </g>
	<g id="_2">
   <path class="red" d="M15639 22526c2,23 5,46 6,71 1,24 1,62 1,114 0,362 -78,672 -236,930 -158,258 -406,484 -745,677 -141,83 -323,177 -545,281 -223,105 -368,175 -435,212 -143,76 -253,183 -335,321 -80,139 -121,293 -121,463 0,232 89,422 266,572 178,150 405,224 681,224 202,0 378,-46 526,-137 148,-91 263,-223 344,-396 -36,12 -72,20 -110,25 -39,6 -81,8 -125,8 -144,0 -259,-40 -345,-123 -86,-82 -130,-192 -130,-331 0,-162 51,-293 153,-394 102,-101 236,-152 400,-152 191,0 348,68 473,204 125,136 187,309 187,521 0,346 -155,642 -467,888 -311,246 -693,369 -1147,369 -530,0 -953,-124 -1271,-374 -316,-250 -475,-580 -475,-991 0,-346 98,-616 293,-811 196,-194 545,-356 1048,-483l21 -3c811,-202 1311,-500 1502,-894 -92,61 -186,106 -284,137 -98,30 -204,45 -315,45 -184,0 -435,-37 -752,-110 -316,-75 -535,-111 -657,-111 -189,0 -327,59 -414,177 -87,117 -140,319 -159,602l-394 0 0 -94c0,-483 94,-858 282,-1125 188,-268 451,-401 790,-401 123,0 265,23 422,68 159,45 335,112 528,201 40,21 99,51 175,91 252,132 444,199 576,199 117,0 207,-38 268,-113 62,-75 102,-193 120,-355l401 0z"/>
   <path class="red" d="M2631 6694c-2,-23 -5,-46 -6,-71 -1,-24 -1,-62 -1,-114 0,-362 78,-672 236,-930 158,-258 406,-484 745,-677 141,-83 323,-177 545,-281 223,-105 368,-175 435,-212 143,-76 253,-183 335,-321 80,-139 121,-293 121,-463 0,-232 -88,-422 -266,-572 -178,-150 -405,-224 -681,-224 -202,0 -378,46 -526,137 -148,91 -263,223 -344,396 36,-12 72,-20 110,-25 39,-6 80,-8 125,-8 144,0 259,40 345,123 86,82 130,192 130,331 0,162 -51,293 -153,394 -102,101 -236,152 -400,152 -191,0 -348,-68 -473,-204 -125,-136 -187,-309 -187,-521 0,-346 155,-642 467,-888 311,-246 693,-369 1147,-369 530,0 954,124 1271,374 316,250 475,580 475,991 0,346 -98,616 -293,811 -196,194 -545,356 -1048,483l-21 3c-811,203 -1311,500 -1502,894 92,-61 186,-106 284,-137 98,-30 204,-45 315,-45 184,0 435,37 752,110 316,75 535,112 657,112 189,0 327,-59 414,-177 87,-117 140,-319 159,-602l394 0 0 94c0,483 -94,858 -282,1125 -188,268 -451,401 -790,401 -123,0 -265,-23 -422,-68 -159,-45 -335,-112 -528,-201 -40,-21 -99,-51 -175,-91 -252,-132 -444,-199 -576,-199 -117,0 -207,38 -268,113 -62,75 -102,193 -120,355l-401 0z"/>
  </g>

</svg>
