<?xml version="1.0" encoding="UTF-8"?>
<!DOCTYPE svg PUBLIC "-//W3C//DTD SVG 1.1//EN" "http://www.w3.org/Graphics/SVG/1.1/DTD/svg11.dtd">
<!-- Creator: CorelDRAW X5 -->
<svg xmlns="http://www.w3.org/2000/svg" xml:space="preserve" width="2550px" height="3300px" style="shape-rendering:geometricPrecision; text-rendering:geometricPrecision; image-rendering:optimizeQuality; fill-rule:evenodd; clip-rule:evenodd"
viewBox="0 0 2550000 3300000"
 xmlns:xlink="http://www.w3.org/1999/xlink">
 <defs>
  <style type="text/css">
   <![CDATA[
    .fil0 {fill:#C5C6C6;fill-opacity:0.258824}
   ]]>
  </style>
 </defs>
 <g id="Layer_x0020_1">
  <metadata id="CorelCorpID_0Corel-Layer"/>
  <path class="fil0" d="M710161 132357l1129677 0c190081,0 345600,155520 345600,345600l0 0c0,190080 -155519,345600 -345600,345600l-1129677 0c-190081,0 -345600,-155520 -345600,-345600l0 0c0,-190080 155519,-345600 345600,-345600zm0 32060l1129677 0c172448,0 313540,141093 313540,313540l0 0c0,172447 -141092,313540 -313540,313540l-1129677 0c-172448,0 -313540,-141093 -313540,-313540l0 0c0,-172447 141092,-313540 313540,-313540z"/>
 </g>
</svg>
