<?xml version="1.0" encoding="UTF-8"?>
<!DOCTYPE svg PUBLIC "-//W3C//DTD SVG 1.1//EN" "http://www.w3.org/Graphics/SVG/1.1/DTD/svg11.dtd">
<!-- Creator: CorelDRAW X5 -->
<svg xmlns="http://www.w3.org/2000/svg" style="shape-rendering:geometricPrecision; text-rendering:geometricPrecision; image-rendering:optimizeQuality; fill-rule:evenodd; clip-rule:evenodd"
viewBox="0 0 32640 22800"
 xmlns:xlink="http://www.w3.org/1999/xlink">
 <defs>
<style type="text/css">
   <![CDATA[
    .fil1 {fill:#2B2A29}
    .fil2 {fill:#5B5B5B}
    .fil0 {fill:#FEFEFE}
   ]]>
  </style>
 </defs>
  <g id="Flush">
   <path class="fil0" d="M896 11427l3419 -2869c50,-814 493,-1590 1250,-2026l4472 -2582c286,-416 699,-750 1207,-935l5550 -2020c508,-185 1039,-194 1525,-60l5085 -897c860,-152 1698,158 2260,749l4464 0c1383,0 2512,1129 2512,2512l0 9059c0,1383 -1129,2512 -2512,2512l-5907 0c-518,0 -1000,-158 -1401,-429l-2788 492c-156,27 -310,40 -463,38l-1469 535c-116,99 -242,190 -379,269l-2451 1415c-133,465 -401,896 -797,1229l-4525 3797c-1059,889 -2650,750 -3539,-310l-5823 -6939c-889,-1059 -750,-2650 310,-3539z"/>
   <path class="fil1" d="M24191 1465l5875 0c1029,0 1871,842 1871,1871l0 9010c0,1029 -842,1871 -1871,1871l-5875 0c-1029,0 -1871,-842 -1871,-1871l0 -9010c0,-1029 842,-1871 1871,-1871zm880 4528c-417,0 -414,0 -813,-71 -51,-172 -51,-172 -51,-415 571,428 639,102 719,-979 -172,283 -466,493 -719,493 -384,0 -864,-265 -864,-972 0,-972 1728,-972 1728,-1944 0,972 1728,972 1728,1944 0,707 -480,972 -864,972 -253,0 -547,-210 -719,-493 80,1081 148,1407 719,979 0,243 0,243 -51,415 -398,71 -396,71 -813,71z"/>
   <path class="fil1" d="M17702 1730l5786 -1020c373,-66 741,-15 1066,127l-363 0c-1376,0 -2499,1123 -2499,2499l0 9010c0,578 199,1111 531,1536l-2307 407c-1013,179 -1989,-504 -2167,-1517l-1565 -8873c-179,-1013 504,-1989 1517,-2167zm1653 4307c-411,72 -408,72 -813,71 -80,-161 -80,-161 -122,-400 636,323 647,-11 538,-1089 -120,308 -373,566 -622,610 -378,67 -897,-111 -1019,-807 -169,-957 1533,-1257 1364,-2214 169,957 1870,657 2039,1614 123,696 -304,1040 -682,1107 -249,44 -575,-112 -793,-361 266,1050 390,1360 878,839 42,239 42,239 22,418 -380,139 -377,138 -788,211z"/>
   <path class="fil1" d="M11498 3642l4624 -1683c-463,548 -690,1289 -556,2047l1564 8873c142,804 658,1452 1337,1796l-2609 949c-967,352 -2046,-151 -2398,-1118l-3081 -8466c-352,-967 151,-2046 1118,-2398zm2375 3954c-392,143 -389,142 -788,211 -107,-144 -107,-144 -190,-373 683,207 635,-123 340,-1166 -65,324 -269,623 -507,709 -361,131 -902,47 -1144,-618 -332,-913 1291,-1504 959,-2417 332,913 1956,322 2288,1235 242,664 -119,1077 -479,1209 -237,86 -586,-11 -844,-218 445,988 620,1272 1010,674 83,228 83,228 94,407 -350,203 -348,202 -740,345z"/>
   <path class="fil1" d="M5949 7094l3735 -2156c-82,427 -53,881 106,1317l3081 8466c390,1072 1447,1717 2534,1637l-3080 1779c-891,514 -2041,206 -2555,-685l-4505 -7803c-514,-891 -206,-2041 685,-2555zm3026 3482c-361,209 -359,207 -739,345 -130,-124 -130,-124 -252,-334 708,85 604,-231 133,-1207 -7,330 -157,660 -376,786 -332,192 -881,202 -1234,-410 -486,-842 1010,-1705 524,-2547 486,842 1982,-22 2468,819 353,612 70,1082 -262,1273 -219,126 -579,91 -869,-68 610,896 832,1145 1112,489 121,210 121,210 163,385 -310,261 -307,259 -669,468z"/>
   <path class="fil1" d="M1395 11900l3067 -2574c55,218 141,433 258,637l4505 7803c688,1191 2222,1602 3413,915l1595 -921c-45,46 -92,90 -142,133l-4500 3776c-788,661 -1974,558 -2636,-231l-5791 -6902c-661,-788 -558,-1974 231,-2636zm3585 2904c-319,268 -317,266 -668,468 -150,-99 -150,-99 -306,-285 712,-39 555,-333 -79,-1212 50,327 -40,677 -234,840 -294,247 -832,352 -1286,-189 -625,-744 699,-1855 74,-2599 625,744 1948,-366 2573,378 454,541 257,1053 -37,1300 -194,163 -554,190 -867,84 756,776 1018,983 1180,288 156,186 156,186 228,351 -260,310 -257,309 -577,577z"/>
  </g>
</svg>
