<?xml version="1.0" encoding="UTF-8"?>
<!DOCTYPE svg PUBLIC "-//W3C//DTD SVG 1.1//EN" "http://www.w3.org/Graphics/SVG/1.1/DTD/svg11.dtd">
<!-- Creator: CorelDRAW X5 -->
<svg xmlns="http://www.w3.org/2000/svg" style="shape-rendering:geometricPrecision; text-rendering:geometricPrecision; image-rendering:optimizeQuality; fill-rule:evenodd; clip-rule:evenodd"
viewBox="0 0 32640 22800"
 xmlns:xlink="http://www.w3.org/1999/xlink">
 <defs>
  <style type="text/css">
   <![CDATA[
    .fil1 {fill:#2B2A29}
    .fil2 {fill:#5B5B5B}
    .fil0 {fill:#FEFEFE}
   ]]>
  </style>
 </defs>
  <g id="Four_x0020_of_x0020_a_x0020_Kind">
   <path class="fil0" d="M896 11427l3419 -2869c50,-814 493,-1590 1250,-2026l4472 -2582c286,-416 699,-750 1207,-935l5550 -2020c508,-185 1039,-194 1525,-60l5085 -897c860,-152 1698,158 2260,749l4464 0c1383,0 2512,1129 2512,2512l0 9059c0,1383 -1129,2512 -2512,2512l-5907 0c-518,0 -1000,-158 -1401,-429l-2788 492c-156,27 -310,40 -463,38l-1469 535c-116,99 -242,190 -379,269l-2451 1415c-133,465 -401,896 -797,1229l-4525 3797c-1059,889 -2650,750 -3539,-310l-5823 -6939c-889,-1059 -750,-2650 310,-3539z"/>
   <path class="fil1" d="M24169 1475l5875 0c1029,0 1871,842 1871,1871l0 9010c0,1029 -842,1871 -1871,1871l-5875 0c-1029,0 -1871,-842 -1871,-1871l0 -9010c0,-1029 842,-1871 1871,-1871zm982 1751c0,-110 -14,-179 -43,-207 -29,-28 -103,-42 -222,-42l-188 0 0 -304 1418 0 0 304 -122 0c-119,0 -193,14 -222,42 -29,28 -43,97 -43,207l0 1282c0,193 -15,340 -47,440 -31,99 -84,187 -157,262 -73,76 -170,135 -290,176 -121,41 -253,62 -398,62 -251,0 -456,-63 -616,-190 -159,-126 -239,-287 -239,-481 0,-126 34,-224 101,-295 67,-72 160,-107 277,-107 94,0 171,30 232,88 60,59 90,134 90,226 0,89 -23,161 -68,215 -45,54 -113,92 -203,115 51,42 101,72 152,92 50,19 105,28 165,28 156,0 265,-40 327,-119 63,-79 94,-224 94,-435l0 -1359z"/>
   <path class="fil1" d="M17680 1741l5786 -1020c373,-66 741,-15 1066,127l-363 0c-1375,0 -2499,1123 -2499,2499l0 9010c0,578 199,1112 531,1536l-2307 407c-1013,179 -1989,-504 -2167,-1517l-1565 -8873c-179,-1013 504,-1989 1517,-2167zm4623 10745c-2,-26 -3,-52 -4,-78 1,26 2,52 4,78zm-3351 -9191c-19,-108 -45,-174 -78,-196 -33,-23 -109,-24 -226,-3l-185 33 -53 -299 1397 -246 53 299 -120 21c-117,21 -187,47 -211,80 -24,33 -25,103 -6,211l223 1263c34,191 44,338 30,441 -14,103 -50,198 -109,286 -59,88 -144,162 -255,224 -112,61 -239,105 -382,130 -247,44 -460,17 -640,-80 -179,-96 -285,-241 -319,-433 -22,-124 -6,-227 48,-309 54,-82 139,-133 254,-154 93,-16 174,-1 244,47 70,48 112,116 128,207 15,88 6,162 -29,223 -35,61 -95,111 -180,148 57,33 112,54 166,64 53,10 108,9 168,-1 154,-27 254,-85 302,-174 48,-89 54,-237 17,-444l-236 -1339z"/>
   <path class="fil1" d="M11476 3653l4624 -1683 -21 26 -20 24 -1 2 -21 26 -18 24 -2 3 -20 27 -1 1 -19 26 -4 6 -29 42 -7 10 -16 25 -18 28 0 0 -15 24 -2 4 -17 29c-16,27 -32,54 -47,81l-5 10 -14 26 -16 30 -2 3 -14 27 -15 30 0 1 -11 24 -7 15 -19 42 -11 25 -7 17 -13 31 0 1 -12 30 -12 32 -12 32 0 0 -11 32 -8 23 -3 9 -10 32 -4 14 -12 42 -1 4 -1 5 -13 46 -2 7 -3 12 -8 33 -3 14 -2 9 -7 33 -7 36 -2 8 -6 33 0 0 -8 48 -3 19 0 0 -5 34 -3 19 -1 5 -5 41 -3 28 -1 8 -3 34 0 5 -1 11 -3 45 0 6 0 3 -2 53 0 7 0 10 -1 47 0 10 1 56 0 6 2 44 1 27 2 40 1 11 0 5 0 4 4 47 1 11 6 57 1 4 7 53 1 8 2 9 9 54 1564 8873 9 49 4 22 12 54 0 1c9,37 18,74 28,111l3 11 3 9c10,36 21,72 33,107l1 4 1 2 16 47 4 10 3 7 13 35 3 8 7 18 18 43 2 6 3 6 18 40 4 10 2 5 21 44 6 13c15,32 32,63 48,94l5 10 2 3 2 4 24 43 3 5 25 42 5 8 6 10 26 41 1 1 20 30 5 8 13 19c20,29 40,57 61,85l4 5 0 0 5 7 26 34 6 7 7 9 23 28 9 10 6 6 24 28 21 24 11 12 18 20 6 7 25 26 5 5 14 15 6 6 25 25 15 15 20 19 16 16 26 24 5 5 16 14 5 5 27 23 4 4 8 7 31 26 7 6 4 3 37 29 6 5 13 10 28 21 0 0 21 16 7 5 26 19 3 2 5 3 38 26 4 3 12 8 30 19 24 15 7 4 29 18 1 1 7 4 41 24 4 3 41 23 10 6 5 2 48 25 -2609 949c-967,352 -2046,-151 -2398,-1118l-3081 -8467c-352,-967 151,-2046 1118,-2398zm1522 1309c-38,-103 -74,-163 -111,-180 -37,-17 -111,-4 -223,36l-177 64 -104 -286 1333 -485 104 286 -114 42c-111,41 -176,79 -194,115 -17,36 -7,106 30,209l439 1205c66,182 102,325 106,430 4,104 -15,204 -58,300 -42,97 -114,185 -212,265 -99,79 -217,144 -353,194 -236,86 -450,97 -644,33 -193,-64 -323,-188 -389,-371 -43,-118 -45,-222 -6,-312 39,-90 114,-155 224,-195 89,-32 171,-31 248,4 77,35 131,95 162,181 30,84 34,159 10,225 -24,66 -75,126 -151,177 62,22 120,33 174,34 54,0 108,-10 165,-30 147,-53 236,-128 267,-223 32,-96 12,-243 -60,-441l-465 -1277z"/>
   <path class="fil1" d="M5927 7104l3735 -2156c-82,427 -53,881 106,1317l3082 8467c390,1072 1447,1717 2534,1637l-3081 1779c-891,514 -2041,206 -2556,-685l-4505 -7803c-514,-891 -206,-2041 685,-2555zm1726 1025c-55,-95 -102,-148 -141,-158 -39,-10 -110,15 -214,75l-163 94 -152 -263 1228 -709 152 263 -106 61c-103,59 -160,109 -171,147 -11,39 11,106 66,201l641 1111c97,168 157,302 179,404 22,102 21,204 -5,306 -25,103 -80,202 -163,298 -84,96 -188,180 -314,253 -217,126 -426,174 -628,144 -201,-29 -350,-129 -448,-297 -63,-109 -83,-211 -60,-306 22,-96 85,-173 186,-231 82,-47 163,-60 245,-39 82,21 145,71 191,150 45,77 61,151 49,220 -12,69 -52,137 -118,201 65,11 124,12 178,4 53,-9 105,-28 157,-58 135,-78 210,-167 224,-266 15,-100 -30,-241 -135,-424l-680 -1177z"/>
   <path class="fil2" d="M1364 11918l3076 -2581c55,218 140,432 258,636l4505 7803c688,1191 2222,1602 3413,915l1591 -919c-46,48 -95,94 -147,138l-4500 3776c-788,661 -1974,558 -2636,-231l-5791 -6902c-661,-788 -558,-1974 231,-2636z"/>
  </g>
</svg>
