<?xml version="1.0" encoding="UTF-8"?>
<!DOCTYPE svg PUBLIC "-//W3C//DTD SVG 1.1//EN" "http://www.w3.org/Graphics/SVG/1.1/DTD/svg11.dtd">
<!-- Creator: CorelDRAW X5 -->
<svg xmlns="http://www.w3.org/2000/svg" style="shape-rendering:geometricPrecision; text-rendering:geometricPrecision; image-rendering:optimizeQuality; fill-rule:evenodd; clip-rule:evenodd"
viewBox="0 0 32640 22800"
 xmlns:xlink="http://www.w3.org/1999/xlink">
 <defs>
  <style type="text/css">
   <![CDATA[
    .fil1 {fill:#2B2A29}
    .fil2 {fill:#5B5B5B}
    .fil0 {fill:#FEFEFE}
   ]]>
  </style>
 </defs>
  <g id="Full_x0020_House">
   <path class="fil0" d="M896 11427l3419 -2869c50,-814 493,-1590 1250,-2026l4472 -2582c286,-416 699,-750 1207,-935l5550 -2020c508,-185 1039,-194 1525,-60l5085 -897c860,-152 1698,158 2260,749l4464 0c1383,0 2512,1129 2512,2512l0 9059c0,1383 -1129,2512 -2512,2512l-5907 0c-518,0 -1000,-158 -1401,-429l-2788 492c-156,27 -310,40 -463,38l-1469 535c-116,99 -242,190 -379,269l-2451 1415c-133,465 -401,896 -797,1229l-4525 3797c-1059,889 -2650,750 -3539,-310l-5823 -6939c-889,-1059 -750,-2650 310,-3539z"/>
   <path class="fil1" d="M24177 1475l5875 0c1029,0 1871,842 1871,1871l0 9010c0,1029 -842,1871 -1871,1871l-5875 0c-1029,0 -1871,-842 -1871,-1871l0 -9010c0,-1029 842,-1871 1871,-1871zm429 3121c0,172 41,304 122,396 81,92 197,138 347,138 143,0 255,-45 335,-136 81,-91 121,-217 121,-379 0,-181 -39,-319 -119,-412 -79,-93 -197,-140 -354,-140 -143,0 -254,47 -333,140 -80,93 -119,225 -119,394zm978 -1554c-55,-36 -109,-63 -163,-80 -55,-18 -110,-26 -164,-26 -217,0 -379,78 -486,235 -107,157 -167,407 -181,749 105,-76 212,-133 321,-171 108,-38 222,-57 341,-57 270,0 493,82 668,245 175,163 262,370 262,621 0,266 -100,481 -301,645 -201,164 -467,246 -797,246 -367,0 -651,-115 -851,-344 -200,-230 -301,-556 -301,-977 0,-448 112,-803 335,-1063 224,-260 529,-391 917,-391 255,0 464,54 628,163 163,108 245,244 245,404 0,98 -33,179 -99,242 -65,63 -150,95 -254,95 -95,0 -173,-26 -232,-79 -60,-52 -89,-120 -89,-205 0,-62 16,-113 50,-154 34,-42 84,-73 151,-96z"/>
   <path class="fil1" d="M17689 1741l5786 -1020c373,-66 741,-15 1066,127l-363 0c-1375,0 -2499,1123 -2499,2499l0 9010c0,578 199,1112 531,1536l-2307 407c-1013,179 -1989,-504 -2167,-1517l-1565 -8873c-179,-1013 504,-1989 1517,-2167zm964 2999c30,169 93,292 189,369 96,76 218,101 366,75 141,-25 243,-89 306,-192 64,-104 82,-235 54,-394 -32,-179 -94,-307 -189,-386 -94,-78 -219,-103 -373,-76 -141,25 -242,90 -303,195 -62,106 -78,242 -49,409zm693 -1700c-60,-26 -118,-43 -175,-51 -58,-8 -113,-7 -166,2 -214,38 -360,143 -437,316 -78,173 -94,429 -48,769 90,-93 185,-167 286,-224 100,-56 209,-94 326,-115 266,-47 499,-5 701,125 201,131 323,319 366,566 46,262 -15,491 -185,687 -170,197 -417,323 -743,381 -362,64 -661,0 -898,-191 -237,-192 -392,-495 -466,-911 -78,-441 -29,-810 145,-1105 175,-295 453,-477 836,-544 251,-44 466,-27 646,51 179,78 283,198 311,356 17,97 -2,182 -56,255 -53,73 -131,119 -234,137 -94,17 -175,4 -242,-37 -68,-41 -109,-103 -123,-186 -11,-61 -3,-114 23,-161 26,-47 70,-87 132,-121z"/>
   <path class="fil1" d="M11485 3653l4624 -1683c-463,548 -690,1289 -556,2047l1564 8873c142,804 658,1452 1337,1796l-2609 949c-967,352 -2046,-151 -2398,-1118l-3081 -8466c-352,-967 151,-2046 1118,-2398zm1521 1309c-38,-103 -74,-163 -111,-180 -37,-17 -111,-4 -223,36l-177 64 -104 -286 1333 -485 104 286 -115 42c-111,41 -176,79 -194,116 -17,36 -7,106 30,209l439 1205c66,182 102,325 106,429 4,104 -15,204 -58,300 -43,97 -114,185 -212,265 -99,79 -217,144 -353,194 -236,86 -450,97 -644,33 -193,-64 -323,-188 -389,-371 -43,-118 -45,-222 -6,-312 39,-90 114,-155 224,-195 89,-32 171,-31 248,4 77,35 131,95 162,181 30,84 34,159 10,225 -24,66 -75,126 -151,177 62,22 120,33 174,34 54,0 108,-10 165,-30 147,-53 236,-128 267,-223 32,-96 12,-243 -60,-441l-465 -1277z"/>
   <path class="fil1" d="M5936 7104l3735 -2156 -4 20 0 2 -6 35 0 2 -3 20 -1 5 -2 16 -3 20 -3 20 -2 16 0 5 -2 20 -2 20 -2 15 0 6 0 3 -4 43 -1 20 -2 36 -1 13 0 7 -2 41 0 13 0 8 0 1 -1 40 0 12 0 9 1 51 0 1 0 10 1 41 0 10 1 11 1 21 1 21 1 9 0 3 4 50 1 8 6 54 1 8 1 5 7 50 1 7 1 4c6,38 12,76 20,114l1 5 1 3c12,60 26,119 43,179l1 2 17 59 1 2 13 39 7 21 0 1 1 4 20 57 3081 8466 22 58 4 10 18 43 8 20 15 34 9 20 22 46 2 4 21 42 6 12 1 1 24 45 6 11 7 12 19 34 11 18 20 34 10 16 21 34 8 12 4 6 28 43 2 2 28 40 8 11 8 11 23 31 12 16 27 34 6 8 31 38 6 7 4 5 33 38 3 3 31 34 4 4 19 20 20 21 15 16 28 28 13 13 34 32 5 5 3 3 37 34 30 26 11 10 21 17 27 22 15 12 32 25 12 9 29 22 15 11 3 2 41 29 36 25 6 4 34 22 13 8 28 18 26 16 14 8 11 6 16 9 27 15 44 24 38 20 9 4 35 17 14 6 32 15 20 9 29 13 3 1 45 19 0 0 46 18 2 1 30 11 19 7 31 11 20 7 37 12 4 1 45 14 48 14 1 0 47 13 0 0 44 11 6 2 40 9 16 3 36 7 17 3 36 7 49 8c49,7 98,13 148,18l5 0c81,7 162,11 244,10l9 0c33,0 66,-1 99,-3l0 0 51 -3 -3080 1779c-891,514 -2041,206 -2555,-685l-4505 -7803c-514,-891 -206,-2041 685,-2555zm1726 1025c-55,-95 -102,-148 -141,-158 -39,-10 -110,15 -214,75l-163 94 -152 -263 1228 -709 152 263 -106 61c-103,59 -160,109 -171,147 -11,39 11,106 66,201l641 1110c97,168 157,302 179,405 22,101 21,204 -5,306 -25,103 -80,201 -163,297 -84,96 -188,180 -314,253 -217,126 -426,174 -628,144 -201,-29 -350,-129 -448,-297 -63,-109 -83,-211 -60,-306 22,-95 85,-173 186,-231 82,-47 163,-60 245,-39 82,21 145,71 191,150 45,77 61,151 49,220 -12,69 -52,137 -118,201 65,11 124,12 178,3 53,-9 105,-28 157,-58 135,-78 210,-167 224,-266 15,-100 -30,-242 -135,-424l-680 -1177z"/>
   <path class="fil1" d="M1382 11910l3067 -2574c55,218 141,433 258,637l4505 7803c688,1191 2222,1602 3413,915l1595 -921c-45,46 -92,90 -142,133l-4500 3776c-788,661 -1974,558 -2636,-231l-5791 -6902c-661,-788 -558,-1974 231,-2636zm1878 710c-71,-84 -126,-128 -166,-131 -40,-3 -106,34 -197,111l-144 121 -195 -233 1086 -912 195 233 -93 78c-91,76 -139,135 -143,175 -4,40 30,102 100,186l824 982c124,148 207,270 247,367 40,96 56,197 48,302 -7,105 -44,212 -109,321 -66,109 -154,210 -266,303 -192,161 -390,245 -594,251 -203,6 -367,-66 -493,-215 -81,-96 -119,-193 -112,-291 5,-98 54,-185 144,-260 72,-61 150,-88 234,-81 84,6 155,44 214,115 57,68 86,138 86,208 0,70 -27,144 -82,218 66,0 124,-10 175,-27 51,-18 99,-46 145,-85 120,-100 178,-201 175,-301 -3,-101 -72,-232 -207,-394l-874 -1041z"/>
  </g>
</svg>
