<?xml version="1.0" encoding="UTF-8"?>
<!DOCTYPE svg PUBLIC "-//W3C//DTD SVG 1.1//EN" "http://www.w3.org/Graphics/SVG/1.1/DTD/svg11.dtd">
<!-- Creator: CorelDRAW X5 -->
<svg xmlns="http://www.w3.org/2000/svg" style="shape-rendering:geometricPrecision; text-rendering:geometricPrecision; image-rendering:optimizeQuality; fill-rule:evenodd; clip-rule:evenodd"
viewBox="0 0 32640 22800"
 xmlns:xlink="http://www.w3.org/1999/xlink">
 <defs>
  <style type="text/css">
   <![CDATA[
    .fil1 {fill:#2B2A29}
    .fil2 {fill:#5B5B5B}
    .fil0 {fill:#FEFEFE}
   ]]>
  </style>
 </defs>
  <g id="High_x0020_Card">
   <path class="fil0" d="M896 11427l3419 -2869c50,-814 493,-1590 1250,-2026l4472 -2582c286,-416 699,-750 1207,-935l5550 -2020c508,-185 1039,-194 1525,-60l5085 -897c860,-152 1698,158 2260,749l4464 0c1383,0 2512,1129 2512,2512l0 9059c0,1383 -1129,2512 -2512,2512l-5907 0c-518,0 -1000,-158 -1401,-429l-2788 492c-156,27 -310,40 -463,38l-1469 535c-116,99 -242,190 -379,269l-2451 1415c-133,465 -401,896 -797,1229l-4525 3797c-1059,889 -2650,750 -3539,-310l-5823 -6939c-889,-1059 -750,-2650 310,-3539z"/>
   <path class="fil1" d="M24177 1485l5875 0c1029,0 1871,842 1871,1871l0 9010c0,1029 -842,1871 -1871,1871l-5875 0c-1029,0 -1871,-842 -1871,-1871l0 -9010c0,-1029 842,-1871 1871,-1871zm1170 2769l-375 -1001 -342 1001 717 0zm-1886 1265l0 -329 91 0c109,0 191,-19 245,-58 55,-38 101,-112 140,-222l807 -2286 607 0 865 2286c49,134 94,214 135,240 42,27 113,40 214,40l86 0 0 329 -1498 0 0 -329 234 0c94,0 158,-8 191,-24 33,-16 50,-45 50,-87 0,-16 -2,-33 -7,-53 -5,-20 -15,-50 -31,-88l-124 -342 -955 0 -124 365c-3,9 -7,24 -14,44 -14,41 -21,70 -21,86 0,38 14,64 42,78 27,14 91,21 193,21l223 0 0 329 -1347 0z"/>
   <path class="fil2" d="M17701 1749l5786 -1020c375,-66 744,-14 1071,129l-379 0c-1376,0 -2499,1123 -2499,2499l0 9010c0,578 198,1112 531,1536l-2295 405c-1013,179 -1989,-504 -2167,-1517l-1565 -8873c-179,-1013 504,-1989 1517,-2167zm1016 617l-27 20c2,-51 -1,-103 -11,-158 9,49 22,95 38,138z"/>
   <path class="fil2" d="M11497 3660l4624 -1683 -21 26 -21 26 -21 26 -20 26 -1 1 -36 48 -8 11 -15 22 -19 28 0 1 -18 27 -18 28 -1 1c-28,44 -55,89 -80,134l-9 16 -12 23 -16 30c-15,30 -30,60 -44,91l-14 31 -12 27 -3 8 -22 52 -4 11 -11 27 0 1 -12 32 -6 15 -6 17 -11 32 0 1 -7 22 -3 9 -10 32 -1 2 -9 31 -8 27 -1 5 -9 33 -1 4 -6 25 -1 4 -8 33 0 2 -6 28 -1 3 -7 33 -1 7 -1 8 -8 40 -2 12 0 0 -6 34 -4 26 -1 8 -5 34 -3 19 -1 5 -5 44 -1 12 -1 6 -4 44 -2 24 -3 44 0 6 0 3 -2 53 0 7 0 10 -1 47 0 10 1 56 0 6 2 44 2 35 2 25 2 28 4 47 1 11 6 57 1 4 7 53 1 8 2 9 9 54 1564 8873 9 49 4 22c12,57 25,113 41,167l3 10 3 9c10,36 22,72 33,107l1 4 19 53 2 6 3 7 13 34 6 16 3 7 19 45 2 5 22 51 2 6 2 5 21 45 4 9c17,36 36,71 55,105l2 3c19,34 38,68 59,101l3 5 28 44 3 4 1 1 28 42 5 7 7 11 21 29 7 9 5 7 30 41 0 0 35 45 4 5 36 44 4 4c23,27 46,54 70,80l13 14 34 36 4 4 37 37 3 3 5 4 34 33 4 4 5 5 38 35 2 2 40 35 5 4 3 3 43 35 0 0 4 3 38 30 11 8 36 27 6 5 6 4 40 29 3 2 3 2 40 27 12 8 37 24 8 5 6 4 34 21 10 6 1 1 11 6 33 19 7 4 11 6 42 23 0 0 53 27 -2609 949c-967,352 -2046,-151 -2398,-1118l-3081 -8466c-352,-967 151,-2046 1118,-2398z"/>
   <path class="fil2" d="M5948 7112l3735 -2156c-82,427 -53,881 106,1318l3081 8466c390,1072 1447,1717 2534,1637l-3080 1779c-891,514 -2041,206 -2555,-685l-4505 -7803c-514,-891 -206,-2041 685,-2555z"/>
   <path class="fil2" d="M1394 11918l3067 -2574c55,218 141,433 258,637l4505 7803c688,1191 2222,1602 3413,915l1595 -921c-45,46 -92,90 -142,133l-4500 3776c-788,661 -1974,558 -2636,-231l-5791 -6902c-661,-788 -558,-1974 231,-2636zm11661 3218c-17,-29 -33,-59 -49,-89 16,30 32,60 49,89z"/>
  </g>
</svg>
