<?xml version="1.0" encoding="UTF-8"?>
<!DOCTYPE svg PUBLIC "-//W3C//DTD SVG 1.1//EN" "http://www.w3.org/Graphics/SVG/1.1/DTD/svg11.dtd">
<!-- Creator: CorelDRAW X5 -->
<svg xmlns="http://www.w3.org/2000/svg" style="shape-rendering:geometricPrecision; text-rendering:geometricPrecision; image-rendering:optimizeQuality; fill-rule:evenodd; clip-rule:evenodd"
viewBox="0 0 32640 22800"
 xmlns:xlink="http://www.w3.org/1999/xlink">
 <defs>
  <style type="text/css">
   <![CDATA[
    .fil1 {fill:#2B2A29}
    .fil2 {fill:#5B5B5B}
    .fil0 {fill:#FEFEFE}
   ]]>
  </style>
 </defs>
  <g id="One_x0020_Pair">
   <path class="fil0" d="M896 11427l3419 -2869c50,-814 493,-1590 1250,-2026l4472 -2582c286,-416 699,-750 1207,-935l5550 -2020c508,-185 1039,-194 1525,-60l5085 -897c860,-152 1698,158 2260,749l4464 0c1383,0 2512,1129 2512,2512l0 9059c0,1383 -1129,2512 -2512,2512l-5907 0c-518,0 -1000,-158 -1401,-429l-2788 492c-156,27 -310,40 -463,38l-1469 535c-116,99 -242,190 -379,269l-2451 1415c-133,465 -401,896 -797,1229l-4525 3797c-1059,889 -2650,750 -3539,-310l-5823 -6939c-889,-1059 -750,-2650 310,-3539z"/>
   <path class="fil1" d="M24169 1485l5875 0c1029,0 1871,842 1871,1871l0 9010c0,1029 -842,1871 -1871,1871l-5875 0c-1029,0 -1871,-842 -1871,-1871l0 -9010c0,-1029 842,-1871 1871,-1871zm239 3041l0 396c0,118 15,192 46,222 31,30 111,45 239,45l116 0 0 329 -1450 0 0 -329 168 0c128,0 208,-15 239,-45 31,-30 46,-104 46,-222l0 -1705c0,-118 -15,-192 -46,-222 -31,-30 -111,-45 -239,-45l-168 0 0 -327 1471 0 0 327 -137 0c-128,0 -208,15 -239,45 -31,30 -46,104 -46,222l0 816 976 -915c26,-27 44,-48 55,-65 11,-17 17,-32 17,-47 0,-19 -14,-34 -41,-43 -27,-9 -71,-14 -130,-14l-192 0 0 -327 1460 0 0 327 -99 0c-114,0 -226,29 -336,86 -110,57 -243,157 -399,300l-422 388 879 1247c63,89 121,148 173,176 52,29 132,43 242,43l148 0 0 329 -1610 0 0 -329 232 0c76,0 125,-6 148,-17 22,-11 34,-32 34,-61 0,-19 -4,-38 -13,-59 -8,-22 -25,-50 -50,-87l-596 -855 -474 415z"/>
   <path class="fil1" d="M17680 1750l5786 -1020c373,-66 741,-15 1066,127l-363 0c-1376,0 -2499,1123 -2499,2499l0 9010c0,578 199,1112 531,1536l-2307 407c-1013,179 -1989,-504 -2167,-1517l-327 -1856 -795 -4506 -443 -2512c-179,-1013 504,-1989 1517,-2167zm763 2953l69 390c20,116 48,187 84,211 36,24 117,25 243,3l114 -20 57 324 -1428 252 -57 -324 166 -29c126,-22 202,-51 227,-86 25,-35 27,-111 7,-227l-296 -1679c-20,-116 -48,-186 -84,-211 -36,-24 -117,-26 -243,-3l-166 29 -57 -322 1449 -255 57 322 -135 24c-126,22 -202,51 -227,86 -25,35 -27,111 -7,227l142 804 802 -1071c21,-31 35,-55 43,-73 8,-19 11,-35 8,-49 -3,-19 -19,-31 -48,-35 -29,-4 -72,-1 -130,9l-189 33 -57 -322 1438 -254 57 322 -98 17c-112,20 -218,68 -316,143 -99,75 -212,197 -341,365l-348 455 1082 1076c78,76 145,124 201,144 56,19 138,19 246,0l145 -26 57 324 -1586 280 -57 -324 228 -40c75,-13 122,-27 142,-42 20,-15 28,-37 23,-66 -3,-18 -11,-37 -23,-56 -11,-20 -34,-45 -65,-77l-736 -739 -395 491z"/>
   <path class="fil2" d="M11467 3660l4639 -1689 -7 9 -25 30 -6 7 -5 7 -21 26 -4 5 -13 16 -4 5 -20 27 -17 23 -3 5 -20 27 -2 2 -17 26 -16 24 -3 4 -18 28 -2 4 -16 25 -18 29 -2 4 -15 25 0 0 -17 29 -3 6 -13 24 -16 29 0 1 -16 30 -3 5 -16 32 -16 32 -4 7 -7 14 -14 31 -1 3 -8 19 -4 9 -13 31 -1 3 -12 29 -4 10 -9 21 -12 32 -2 6 -8 23 -1 3 -11 32 -1 2 -9 26 -2 4 -10 32 -2 7 -8 26 -9 32 0 0 -9 33 -2 7 -7 26 -8 33 -4 18 -1 3 -10 46 -2 11 -1 6 -10 50 -1 3 -5 31 -5 30 -1 4 -5 34 -1 11 -3 21 0 3 -4 34 -2 15 -2 19 -3 34 -2 23 -1 12 -2 34 0 0 0 3 -2 48 -1 20 -1 49 0 9 1 56 0 5 2 56 0 4 4 63 0 4 4 52 1 11 6 56 1 7 7 52 1 8 1 6 9 57 1565 8873 11 57 2 10 12 56 1 6 13 56 1 2 14 54 2 7 2 9 15 50 1 3 17 53 2 5 2 5 16 45 3 8 2 6 18 47 4 11 18 44 3 7 5 12 19 43 1 2 2 3 21 45 6 13 20 41 5 9 4 7 19 37 5 10 1 1 18 32 12 21 6 11 19 31 6 11 5 8 18 29 19 29 21 31 4 6 6 8 21 29 1 1 17 23 4 5 21 29 2 3 20 25 18 22 5 6 31 38 5 6 33 39 4 5 6 7 27 30 7 8 3 4 24 26 3 3 20 20 2 2 25 25 6 6 2 2 39 37 3 3 2 2 26 24 4 4 20 18 3 3 27 23 0 0 22 18 12 10 38 31 17 14 21 16 28 21 2 1 23 17 4 3 29 21 2 2 27 19 6 4 23 15 30 19 6 4 17 11 8 5 30 19 4 3 26 15 5 3 26 15 31 17 6 3 22 12 3 2 32 16 -2612 951c-967,352 -2046,-151 -2398,-1118l-3081 -8466c-352,-967 151,-2046 1118,-2398z"/>
   <path class="fil2" d="M5918 7112l3735 -2156c-82,427 -53,881 106,1317l3081 8466c390,1072 1447,1717 2534,1637l-3080 1779c-891,514 -2041,206 -2555,-685l-4505 -7803c-514,-891 -206,-2041 685,-2555z"/>
   <path class="fil2" d="M1364 11918l3067 -2574c55,218 141,433 258,637l4505 7803c688,1191 2222,1602 3413,915l1595 -921c-45,46 -92,90 -142,133l-4500 3776c-788,661 -1974,558 -2636,-231l-5791 -6902c-661,-788 -558,-1974 231,-2636z"/>
  </g>
</svg>
