<?xml version="1.0" encoding="UTF-8"?>
<!DOCTYPE svg PUBLIC "-//W3C//DTD SVG 1.1//EN" "http://www.w3.org/Graphics/SVG/1.1/DTD/svg11.dtd">
<!-- Creator: CorelDRAW X5 -->
<svg xmlns="http://www.w3.org/2000/svg" style="shape-rendering:geometricPrecision; text-rendering:geometricPrecision; image-rendering:optimizeQuality; fill-rule:evenodd; clip-rule:evenodd"
viewBox="0 0 32640 22800"
 xmlns:xlink="http://www.w3.org/1999/xlink">
 <defs>
  <style type="text/css">
   <![CDATA[
    .fil1 {fill:#2B2A29}
    .fil2 {fill:#5B5B5B}
    .fil0 {fill:#FEFEFE}
   ]]>
  </style>
 </defs>
  <g id="Straight_x0020_Flush">
   <path class="fil0" d="M896 11427l3419 -2869c50,-814 493,-1590 1250,-2026l4472 -2582c286,-416 699,-750 1207,-935l5550 -2020c508,-185 1039,-194 1525,-60l5085 -897c860,-152 1698,158 2260,749l4464 0c1383,0 2512,1129 2512,2512l0 9059c0,1383 -1129,2512 -2512,2512l-5907 0c-518,0 -1000,-158 -1401,-429l-2788 492c-156,27 -310,40 -463,38l-1469 535c-116,99 -242,190 -379,269l-2451 1415c-133,465 -401,896 -797,1229l-4525 3797c-1059,889 -2650,750 -3539,-310l-5823 -6939c-889,-1059 -750,-2650 310,-3539z"/>
   <path class="fil1" d="M24191 1475l5875 0c1029,0 1871,842 1871,1871l0 9010c0,1029 -842,1871 -1871,1871l-5875 0c-1029,0 -1871,-842 -1871,-1871l0 -9010c0,-1029 842,-1871 1871,-1871zm239 3041l0 396c0,118 15,192 46,222 31,30 111,45 239,45l116 0 0 329 -1450 0 0 -329 168 0c128,0 208,-15 239,-45 31,-30 46,-104 46,-222l0 -1705c0,-118 -15,-192 -46,-222 -31,-30 -111,-45 -239,-45l-168 0 0 -327 1471 0 0 327 -137 0c-128,0 -208,15 -239,45 -31,30 -46,104 -46,222l0 816 975 -915c26,-27 44,-48 55,-65 11,-17 17,-32 17,-47 0,-19 -14,-34 -41,-43 -27,-9 -71,-14 -129,-14l-192 0 0 -327 1460 0 0 327 -99 0c-114,0 -226,29 -336,86 -110,57 -243,157 -399,300l-422 388 879 1247c63,88 121,147 173,176 52,29 132,43 242,43l148 0 0 329 -1610 0 0 -329 232 0c76,0 125,-6 148,-17 22,-11 34,-32 34,-61 0,-19 -4,-38 -13,-59 -8,-22 -25,-50 -50,-87l-596 -855 -474 415zm641 5350c-417,0 -414,0 -813,-71 -51,-172 -51,-172 -51,-415 571,428 639,102 719,-979 -172,283 -466,493 -719,493 -384,0 -864,-265 -864,-972 0,-972 1728,-972 1728,-1944 0,972 1728,972 1728,1944 0,707 -480,972 -864,972 -253,0 -547,-210 -719,-493 80,1081 148,1407 719,979 0,243 0,243 -51,415 -398,71 -396,71 -813,71z"/>
   <path class="fil1" d="M17702 1741l5786 -1020c373,-66 741,-15 1066,127l-363 0c-1375,0 -2499,1123 -2499,2499l0 9010c0,578 199,1112 531,1536l-2307 407c-1013,179 -1988,-504 -2167,-1517l-1564 -8873c-179,-1013 504,-1988 1517,-2167zm2083 2870c31,-100 48,-207 52,-323 4,-115 -6,-239 -29,-370 -66,-377 -198,-656 -396,-839 -197,-183 -439,-249 -724,-199 -294,52 -504,195 -632,429 -128,234 -159,534 -95,901 39,219 99,400 181,544 82,144 184,245 302,305 -3,-11 -6,-24 -10,-38 -3,-15 -8,-36 -13,-64 -30,-169 -6,-309 73,-420 78,-111 203,-181 373,-211 142,-25 288,-15 436,31 148,46 309,130 482,254zm-327 427c-97,-126 -192,-216 -287,-270 -95,-54 -190,-73 -284,-56 -77,13 -133,48 -172,104 -38,56 -50,123 -36,201 15,84 58,148 127,189 69,42 153,54 253,36 80,-14 154,-39 224,-75 68,-36 127,-79 175,-130zm719 -97c54,49 105,84 151,105 47,21 92,28 133,20 61,-11 100,-45 118,-104 17,-59 17,-164 -3,-314l276 -49 11 62c46,259 30,463 -46,614 -76,150 -211,242 -407,277 -99,17 -198,9 -298,-23 -99,-33 -215,-98 -348,-194 -99,55 -201,100 -306,138 -104,38 -213,67 -327,87 -469,83 -872,11 -1208,-216 -337,-227 -545,-566 -625,-1017 -79,-451 1,-840 240,-1167 240,-326 595,-532 1066,-615 469,-83 872,-11 1210,214 337,225 545,561 624,1010 39,222 36,433 -8,633 -44,200 -129,380 -253,539zm-151 4911c-411,72 -408,72 -813,71 -80,-161 -80,-161 -122,-400 636,323 647,-11 538,-1089 -120,308 -373,566 -622,610 -378,67 -897,-111 -1019,-807 -169,-957 1533,-1257 1364,-2214 169,957 1870,657 2039,1614 123,696 -304,1040 -682,1107 -249,44 -575,-112 -793,-361 266,1050 390,1360 878,839 42,239 42,239 22,418 -380,139 -377,138 -788,211z"/>
   <path class="fil1" d="M11498 3653l4624 -1683 -21 26 -10 12 -5 6 -27 34 -5 7 -7 9 -28 38 -1 1 -34 47 -1 1 -3 5 -25 36 -11 16c-19,29 -38,58 -56,88l-3 5 -14 24 -16 28 0 1 -2 4c-18,32 -36,65 -52,98l-3 7 -21 43 -10 20 -4 8 -14 31 -2 4 -23 52 -1 3 -1 3c-15,36 -29,73 -43,109 -13,37 -26,75 -38,113l0 2 -15 51 -2 7 -1 5 -12 45 -2 8 -3 12 -10 43 -2 10c-9,38 -16,75 -23,114l0 0 -10 58 0 2 -1 8 -7 50 -1 6c-5,38 -9,76 -12,115l0 5 0 3 -3 53 0 6 0 3 -2 52 0 7 0 10 -1 47 0 10 1 56 0 6 2 56 0 2 0 1 3 51 1 11 0 5 0 4 4 48 1 10 6 57 1 4 7 53 1 8 2 9 9 54 1564 8873 9 49 4 22c12,57 25,113 41,167l3 10 3 9c10,36 22,72 33,107l1 4 2 7 18 51 1 2 19 48 7 18 18 43 2 6 1 2 21 49 2 6 2 5 21 44 6 13 21 42 4 7 2 3 27 51 2 3 26 45 6 9 28 47 1 1 26 41 6 10 1 1 5 8 24 36 3 5 7 11 25 36 6 9 24 32 19 24 22 28 5 7 7 9c23,28 46,55 69,82l2 2 4 4 32 35 5 6 6 7 25 26 11 11 4 4 35 36 3 3 39 37 5 4 5 5 26 24 5 4 18 16 3 3 27 23 18 16 19 15 18 15 28 22 2 2 25 19 1 0 28 21 6 5 22 16 26 19 3 2 29 20 6 4 23 15 0 0 30 19 21 13 9 5 29 18 1 1 31 18 5 3 24 14 2 1 31 17 11 6 4 2 42 22 6 3 -2609 949c-967,352 -2046,-151 -2398,-1118l-3081 -8466c-352,-967 151,-2046 1118,-2398zm1507 1249c-40,-111 -80,-175 -119,-193 -39,-18 -120,-5 -240,39l-190 69 -112 -307 1432 -521 112 307 -123 45c-120,44 -190,85 -208,124 -19,39 -8,114 33,225l471 1295c71,195 109,349 114,461 5,112 -16,219 -62,323 -46,104 -122,198 -228,284 -107,86 -233,155 -380,209 -253,92 -483,104 -692,35 -207,-69 -347,-201 -418,-398 -46,-127 -49,-239 -6,-335 41,-97 122,-167 241,-210 95,-35 184,-33 266,4 82,37 140,102 174,195 33,90 36,171 11,242 -25,71 -80,135 -163,190 67,24 129,36 187,37 58,0 116,-10 177,-32 158,-57 253,-137 287,-240 34,-103 13,-261 -64,-474l-499 -1372zm2189 6336c-392,143 -389,142 -788,211 -107,-144 -107,-144 -190,-373 683,207 635,-123 341,-1166 -65,324 -269,623 -507,709 -361,131 -902,47 -1144,-618 -332,-913 1291,-1504 959,-2417 332,913 1956,322 2288,1235 242,664 -119,1077 -479,1209 -238,86 -586,-11 -844,-217 445,988 620,1272 1010,674 83,228 83,228 94,407 -350,203 -347,202 -739,345z"/>
   <path class="fil1" d="M5949 7104l3735 -2156c-82,427 -53,881 106,1317l3081 8466c390,1072 1447,1717 2534,1637l-3080 1779c-891,514 -2041,206 -2555,-685l-4505 -7803c-514,-891 -206,-2041 685,-2555zm1696 2008c-206,-356 -287,-696 -244,-1018 44,-322 202,-562 476,-720 273,-158 560,-175 863,-51 302,123 556,363 761,718 206,356 286,696 241,1018 -45,323 -204,562 -477,720 -273,158 -560,176 -861,53 -300,-123 -553,-363 -759,-719zm512 -295c181,314 347,525 498,632 151,108 298,120 442,37 143,-83 207,-217 190,-403 -17,-185 -116,-435 -297,-747 -181,-313 -347,-523 -499,-631 -153,-109 -301,-121 -444,-38 -143,82 -205,217 -186,403 18,186 118,436 297,747zm-992 2089l-155 -268 148 -85c113,-65 176,-120 189,-164 14,-45 -6,-113 -59,-205l-691 -1197 -405 234 -153 -265c154,-99 260,-201 317,-306 56,-105 75,-229 54,-374l267 -154 1049 1817c54,93 99,144 139,155 39,11 111,-14 215,-74l169 -98 155 268 -1238 715zm3742 3026c-361,209 -359,207 -739,345 -130,-124 -130,-124 -252,-334 708,85 604,-231 133,-1207 -7,330 -157,660 -376,786 -332,192 -881,203 -1234,-410 -486,-842 1010,-1705 524,-2547 486,842 1982,-22 2468,819 354,612 70,1082 -262,1274 -219,126 -579,91 -869,-68 610,896 832,1145 1112,488 122,210 122,210 163,385 -310,261 -307,259 -669,468z"/>
   <path class="fil1" d="M1395 11910l3067 -2574c55,218 141,433 258,637l4505 7803c688,1191 2222,1602 3413,914l1595 -921c-45,46 -92,90 -142,133l-4500 3776c-788,661 -1974,558 -2636,-231l-5791 -6902c-661,-788 -558,-1974 231,-2636zm6068 5863c-319,268 -317,266 -668,468 -150,-99 -150,-99 -306,-285 712,-39 555,-333 -79,-1212 50,327 -40,677 -234,840 -294,247 -832,352 -1286,-189 -625,-744 699,-1855 74,-2599 625,744 1948,-366 2573,378 454,542 257,1053 -37,1300 -194,162 -554,190 -867,84 756,776 1018,983 1180,288 156,186 156,186 228,351 -260,310 -258,309 -577,577zm-3446 -3348c62,-8 120,-24 171,-46 51,-21 100,-52 148,-92 163,-137 231,-301 206,-492 -27,-191 -148,-419 -366,-683 -29,132 -74,251 -134,354 -59,103 -138,196 -236,278 -201,168 -419,247 -656,236 -237,-11 -431,-107 -584,-288 -178,-213 -244,-447 -199,-705 45,-258 195,-493 451,-708 282,-237 576,-330 881,-280 305,50 595,238 868,564 286,341 426,681 418,1021 -8,339 -162,635 -462,887 -187,157 -375,245 -564,264 -189,20 -334,-30 -435,-150 -63,-75 -89,-158 -77,-249 11,-90 58,-169 140,-238 71,-60 145,-87 223,-84 78,3 144,35 196,98 38,45 58,93 60,145 2,51 -15,107 -50,168zm-280 -1782c-114,-136 -232,-214 -355,-235 -123,-20 -241,17 -356,113 -114,95 -172,203 -174,323 -3,120 51,246 161,377 112,134 231,209 354,225 123,16 246,-27 369,-130 102,-85 154,-189 154,-310 0,-121 -50,-243 -152,-364z"/>
  </g>
</svg>
