<?xml version="1.0" encoding="UTF-8"?>
<!DOCTYPE svg PUBLIC "-//W3C//DTD SVG 1.1//EN" "http://www.w3.org/Graphics/SVG/1.1/DTD/svg11.dtd">
<!-- Creator: CorelDRAW X5 -->
<svg xmlns="http://www.w3.org/2000/svg" style="shape-rendering:geometricPrecision; text-rendering:geometricPrecision; image-rendering:optimizeQuality; fill-rule:evenodd; clip-rule:evenodd"
viewBox="0 0 32640 22800"
 xmlns:xlink="http://www.w3.org/1999/xlink">
 <defs>
  <style type="text/css">
   <![CDATA[
    .fil1 {fill:#2B2A29}
    .fil2 {fill:#5B5B5B}
    .fil0 {fill:#FEFEFE}
   ]]>
  </style>
 </defs>
  <g id="Straight">
   <path class="fil0" d="M896 11427l3419 -2869c50,-814 493,-1590 1250,-2026l4472 -2582c286,-416 699,-750 1207,-935l5550 -2020c508,-185 1039,-194 1525,-60l5085 -897c860,-152 1698,158 2260,749l4464 0c1383,0 2512,1129 2512,2512l0 9059c0,1383 -1129,2512 -2512,2512l-5907 0c-518,0 -1000,-158 -1401,-429l-2788 492c-156,27 -310,40 -463,38l-1469 535c-116,99 -242,190 -379,269l-2451 1415c-133,465 -401,896 -797,1229l-4525 3797c-1059,889 -2650,750 -3539,-310l-5823 -6939c-889,-1059 -750,-2650 310,-3539z"/>
   <path class="fil1" d="M24169 1465l5875 0c1029,0 1871,842 1871,1871l0 9010c0,1029 -842,1871 -1871,1871l-5875 0c-1029,0 -1871,-842 -1871,-1871l0 -9010c0,-1029 842,-1871 1871,-1871zm392 3611c53,34 107,59 160,75 53,16 110,24 172,24 213,0 371,-82 474,-244 103,-164 156,-416 158,-758 -107,82 -218,144 -330,185 -112,41 -232,61 -359,61 -262,0 -480,-80 -654,-240 -174,-161 -262,-359 -262,-596 0,-278 100,-500 300,-668 200,-169 467,-252 800,-252 369,0 653,118 855,352 201,235 303,564 303,990 0,445 -112,795 -336,1051 -224,255 -532,382 -924,382 -244,0 -445,-53 -602,-160 -158,-106 -237,-238 -237,-394 0,-98 34,-178 101,-240 67,-62 153,-92 260,-92 93,0 167,27 225,79 58,52 88,119 88,201 0,59 -16,108 -47,149 -32,40 -80,72 -146,96zm931 -1545c0,-178 -40,-313 -120,-408 -81,-95 -196,-142 -346,-142 -148,0 -262,45 -341,136 -80,90 -119,221 -119,392 0,175 42,308 126,400 84,92 206,138 366,138 133,0 239,-46 317,-138 78,-92 118,-218 118,-377z"/>
   <path class="fil1" d="M17680 1730l5786 -1020c373,-66 741,-15 1066,127l-363 0c-1375,0 -2499,1123 -2499,2499l0 9010c0,578 199,1112 531,1536l-2307 407c-1013,179 -1989,-504 -2167,-1517l-1564 -8873c-179,-1013 504,-1989 1517,-2167zm1554 2067c90,-64 153,-137 191,-217 37,-79 47,-167 31,-261 -20,-115 -87,-197 -198,-246 -112,-50 -255,-59 -428,-28 -171,30 -299,83 -384,160 -86,77 -119,168 -101,272 14,77 53,140 118,187 65,48 154,77 264,87l507 46zm-498 552c-114,68 -197,146 -247,234 -50,87 -67,180 -49,278 22,128 97,217 225,269 128,53 294,61 499,25 211,-37 364,-93 457,-168 94,-75 131,-171 110,-287 -14,-78 -51,-138 -112,-180 -61,-42 -154,-72 -278,-90l-605 -82zm-337 -71c-163,-64 -289,-143 -379,-239 -91,-95 -147,-208 -170,-338 -39,-224 25,-424 191,-600 168,-176 406,-291 716,-345 311,-55 573,-40 785,46 213,86 336,225 370,415 22,123 3,237 -55,341 -59,105 -160,205 -306,302 204,45 362,118 475,218 113,100 184,230 212,388 45,254 -21,471 -198,654 -177,182 -442,305 -796,368 -350,62 -641,46 -873,-48 -232,-94 -366,-248 -404,-463 -24,-138 -1,-266 71,-382 72,-116 192,-222 362,-317z"/>
   <path class="fil1" d="M11476 3642l4624 -1683 -21 26 -20 24 -1 2 -21 26 -18 24 -2 3 -20 27 -1 1 -7 9 -21 29 -8 11 -3 5 -19 28 -1 2 -17 26 -18 28 -7 11 -4 7 -18 29c-17,28 -34,56 -49,85l-7 12 -12 23 -4 7 -21 40 -3 7 -7 14 -15 30 -1 2 -10 20 -4 8 -14 31 -2 4 -4 9 -15 35 -6 14 -13 31 -9 22 -4 10 -12 32 -6 15 -6 17 -11 32 -3 9 -2 6 -15 48 -1 3 -1 2 -2 6 -14 46 -2 7 -1 5 -12 45 -2 8 -3 12 -8 33 -1 3 -5 20 -9 44 -1 7 -2 9 -10 51 0 0 -10 58 0 2 -1 8 -5 34 -3 19 -1 6 -5 43 -1 12 -1 6 -4 43 -2 24 -3 44 0 6 0 3 -2 52 0 7 0 10 -1 47 0 10 1 56 0 6 2 43 1 27 2 40 1 11 0 5 0 4 4 48 1 10 6 57 1 4 7 53 1 8 2 9 9 54 1564 8873 9 49 4 22 12 54 0 1c9,37 18,74 28,111l3 11 3 9c10,36 21,72 33,107l1 4 1 2 20 56 1 2 19 49 7 18 18 43 2 6 1 2 21 49 2 6 2 5 21 44 6 13c17,35 35,69 54,103l2 3 27 47 3 5 29 49 3 5 22 35 8 13 1 1 5 8 24 36 3 5 7 11c18,26 37,52 56,78l17 23 22 28 5 7 7 9c23,28 46,55 69,82l2 2 2 2 35 39 3 3 6 7c24,26 49,52 75,77l3 3c24,24 49,48 75,71l13 12 5 5 35 31 5 4 1 1 45 38 4 3 40 31 3 3 13 10c26,20 52,39 78,57l6 4 3 2 0 0 41 28 6 4 12 8 30 19 8 5 8 5 38 23 5 3 1 1 3 2 45 26 5 3 40 22 11 6 4 2 42 22 6 3 -2609 949c-967,352 -2046,-151 -2398,-1118l-3081 -8466c-352,-967 151,-2046 1118,-2398zm1777 3581c-7,-19 -18,-48 -34,-86 -16,-39 -27,-67 -33,-85 -71,-196 -120,-368 -148,-516 -27,-148 -33,-286 -19,-414 20,-213 122,-541 307,-983 69,-165 120,-291 153,-379 -54,54 -109,99 -167,136 -58,38 -116,67 -175,88 -83,30 -197,56 -343,77 -145,21 -243,41 -294,59 -145,53 -231,141 -259,265 -26,124 3,304 89,541l9 25 -289 105 -425 -1169 309 -112 108 298c38,-142 92,-255 162,-337 70,-82 166,-145 288,-190 116,-42 278,-62 484,-59 207,3 339,-6 398,-27 57,-21 101,-54 130,-96 30,-43 45,-99 46,-168l269 -98c53,186 27,490 -83,909 -51,197 -87,348 -107,455 -43,235 -56,459 -37,676 19,215 71,443 158,681 19,53 34,93 44,120 10,26 21,52 32,76l-575 209z"/>
   <path class="fil1" d="M5928 7094l3735 -2156 -4 20 -6 38 0 2 -3 20 -1 5 -2 16 -3 20 -3 20 -5 41 -2 20 -3 34 -1 7 -2 20 0 4 -1 17 -2 20 -1 21 -1 20 -1 21 -1 21 0 12 0 8 0 1 -1 40 0 12 0 9 0 21 0 21 0 2 0 18 1 21 1 21 0 10 1 11 1 21 1 21 1 9 0 3 4 50 1 8 1 12 5 42 1 8 1 5 7 50 1 7 2 14 3 21 3 21 1 6 3 15 8 41 0 0 1 5 1 5 11 52 1 4 4 17 10 41 1 3 1 5 14 54 1 2 5 18 12 41 1 2 13 39 7 21 0 1 1 4 20 57 3081 8466 22 58 4 10 18 43 8 20 15 34 9 20 22 46 2 4 21 42 6 12 1 1 24 45 6 11 7 12 19 33 13 22 16 27 12 20 18 28 15 23 0 1 28 43 2 2 28 40 4 5 14 19 22 30 10 13 27 34 11 13 21 26 17 21 33 38 3 3 31 34 4 5 19 20 20 21 15 15 35 35 2 2 32 30 11 11 3 3 37 34 27 23 15 13 25 21 16 13 26 21 6 5 29 22 5 4 28 21 15 11 3 2 41 29 36 25 6 4 34 22 13 8 28 18 21 13 28 17 1 0 42 24 2 1 44 24 7 4 37 19 3 2 28 14 28 13 26 12 12 5 39 17 45 19 0 0 46 18 2 1 30 11 18 7 37 13 13 4 34 11 19 6 36 11 48 14 46 12 2 1 35 9 20 5 38 9 7 2 42 9 16 3 36 6 1 0 49 8 2 0 47 7c31,4 63,8 94,11l15 1 37 3 10 1c63,4 126,6 190,6l9 0c33,0 66,-1 99,-3l0 0 51 -3 -3080 1779c-891,514 -2041,206 -2555,-685l-4505 -7803c-514,-891 -206,-2041 685,-2555zm1932 2487c86,149 187,243 304,282 116,39 240,21 369,-54 124,-71 198,-166 222,-285 25,-119 -4,-249 -84,-389 -91,-157 -194,-257 -309,-298 -115,-41 -241,-22 -377,56 -124,71 -197,167 -218,287 -22,121 9,254 94,401zm70 -1834c-65,-4 -126,0 -182,12 -57,12 -108,32 -156,59 -188,109 -289,257 -303,447 -14,189 59,436 218,739 53,-118 117,-221 192,-308 75,-87 164,-160 267,-220 234,-135 467,-176 701,-122 233,54 412,189 538,407 133,230 154,467 62,709 -92,243 -281,446 -568,612 -318,184 -621,226 -909,128 -288,-99 -538,-331 -749,-696 -224,-388 -304,-751 -241,-1088 64,-337 263,-603 599,-797 221,-128 429,-185 625,-173 195,12 334,89 414,228 49,85 61,171 35,259 -25,87 -83,157 -173,209 -83,48 -163,63 -241,48 -78,-15 -137,-60 -180,-133 -31,-53 -42,-106 -34,-159 8,-53 36,-105 83,-159z"/>
   <path class="fil1" d="M1374 11900l3067 -2574c55,218 140,433 258,637l4505 7803c688,1191 2222,1602 3413,915l1595 -921c-45,46 -92,90 -142,133l-4500 3776c-788,661 -1974,558 -2636,-231l-5791 -6902c-661,-788 -558,-1974 231,-2636zm2362 2575c99,-2 194,-21 284,-57 90,-36 175,-87 256,-155 158,-132 243,-279 257,-442 13,-163 -47,-324 -181,-484 -138,-164 -287,-256 -448,-276 -161,-20 -318,33 -469,160 -83,70 -145,151 -184,243 -40,92 -59,199 -59,323l-233 179 -799 -1160c139,-56 272,-122 401,-200 129,-78 256,-170 381,-274 130,-109 247,-222 351,-339 105,-117 198,-239 278,-365 91,198 100,393 28,586 -72,193 -226,388 -463,587 -43,36 -95,76 -156,118 -61,42 -139,94 -236,155l230 326c52,-113 113,-214 181,-305 68,-91 144,-172 228,-242 238,-199 490,-296 757,-289 267,7 487,114 661,321 202,241 284,496 246,765 -39,270 -192,517 -462,744 -248,208 -493,326 -735,351 -242,25 -431,-43 -568,-207 -71,-85 -103,-180 -94,-286 10,-105 57,-194 142,-265 81,-68 166,-101 254,-100 89,1 163,38 223,109 64,77 90,158 77,245 -13,86 -63,166 -148,237z"/>
  </g>
</svg>
