<?xml version="1.0" encoding="UTF-8"?>
<!DOCTYPE svg PUBLIC "-//W3C//DTD SVG 1.1//EN" "http://www.w3.org/Graphics/SVG/1.1/DTD/svg11.dtd">
<!-- Creator: CorelDRAW X5 -->
<svg xmlns="http://www.w3.org/2000/svg" style="shape-rendering:geometricPrecision; text-rendering:geometricPrecision; image-rendering:optimizeQuality; fill-rule:evenodd; clip-rule:evenodd"
viewBox="0 0 32640 22800"
 xmlns:xlink="http://www.w3.org/1999/xlink">
 <defs>
  <style type="text/css">
   <![CDATA[
    .fil1 {fill:#2B2A29}
    .fil2 {fill:#5B5B5B}
    .fil0 {fill:#FEFEFE}
   ]]>
  </style>
 </defs>
  <g id="Three_x0020_of_x0020_a_x0020_Kind">
   <path class="fil0" d="M896 11427l3419 -2869c50,-814 493,-1590 1250,-2026l4472 -2582c286,-416 699,-750 1207,-935l5550 -2020c508,-185 1039,-194 1525,-60l5085 -897c860,-152 1698,158 2260,749l4464 0c1383,0 2512,1129 2512,2512l0 9059c0,1383 -1129,2512 -2512,2512l-5907 0c-518,0 -1000,-158 -1401,-429l-2788 492c-156,27 -310,40 -463,38l-1469 535c-116,99 -242,190 -379,269l-2451 1415c-133,465 -401,896 -797,1229l-4525 3797c-1059,889 -2650,750 -3539,-310l-5823 -6939c-889,-1059 -750,-2650 310,-3539z"/>
   <path class="fil1" d="M24177 1465l5875 0c1029,0 1871,842 1871,1871l0 9010c0,1029 -842,1871 -1871,1871l-5875 0c-1029,0 -1871,-842 -1871,-1871l0 -9010c0,-1029 842,-1871 1871,-1871zm445 3973c0,-20 -1,-51 -2,-92 -1,-42 -2,-72 -2,-91 0,-208 13,-386 38,-536 25,-148 67,-280 124,-395 92,-193 300,-466 625,-819 122,-131 213,-232 274,-304 -69,32 -137,56 -204,71 -67,16 -132,23 -195,23 -89,0 -204,-15 -348,-45 -143,-30 -242,-45 -296,-45 -154,0 -266,54 -334,160 -67,107 -101,287 -101,539l0 26 -308 0 0 -1244 328 0 0 317c84,-121 174,-208 267,-261 94,-53 206,-80 336,-80 124,0 283,37 475,110 193,74 321,110 384,110 61,0 113,-16 155,-46 43,-30 76,-78 101,-142l287 0c-13,193 -143,469 -389,826 -116,168 -201,298 -256,391 -121,206 -210,413 -266,622 -56,209 -84,440 -84,694 0,57 0,99 1,128 1,28 2,56 4,82l-612 0z"/>
   <path class="fil1" d="M17688 1730l5786 -1020c373,-66 741,-15 1066,127l-363 0c-1375,0 -2499,1123 -2499,2499l0 9010c0,578 199,1112 531,1536l-2307 407c-1013,179 -1989,-504 -2167,-1517l-1565 -8873c-179,-1013 504,-1989 1518,-2167zm1128 3835c-4,-20 -10,-51 -18,-91 -9,-41 -15,-71 -18,-89 -36,-205 -55,-383 -56,-534 -1,-151 18,-287 53,-411 57,-206 214,-511 473,-915 97,-150 169,-266 217,-347 -62,43 -125,79 -188,105 -63,27 -126,46 -188,57 -87,15 -204,21 -351,16 -146,-4 -247,-2 -300,7 -152,27 -252,99 -301,216 -47,117 -50,300 -6,548l4 26 -303 54 -216 -1225 323 -57 55 312c62,-134 135,-235 218,-304 83,-69 189,-114 317,-137 122,-21 285,-13 487,26 203,39 335,53 397,42 60,-11 109,-35 145,-73 37,-37 61,-90 75,-157l282 -50c20,193 -59,487 -239,881 -85,185 -146,328 -184,429 -83,224 -135,443 -154,659 -19,215 -6,448 38,698 10,56 17,98 23,126 6,28 12,55 18,80l-602 106z"/>
   <path class="fil1" d="M11484 3642l4624 -1683c-463,548 -690,1289 -556,2047l1564 8873c142,804 658,1452 1337,1796l-2609 949c-967,352 -2046,-151 -2398,-1118l-3082 -8466c-352,-967 151,-2046 1118,-2398zm1777 3581c-7,-19 -18,-48 -34,-86 -16,-39 -27,-67 -33,-85 -71,-196 -120,-367 -147,-516 -27,-148 -33,-286 -19,-414 20,-213 122,-541 307,-984 69,-165 120,-291 154,-379 -54,54 -109,99 -167,136 -58,38 -116,67 -175,88 -84,30 -197,56 -343,77 -145,21 -243,41 -294,59 -145,53 -231,141 -259,265 -26,124 3,304 89,541l9 24 -290 105 -425 -1169 309 -112 108 298c38,-142 92,-255 162,-337 70,-82 166,-146 288,-190 116,-42 278,-62 484,-59 207,3 339,-6 398,-27 58,-21 101,-54 130,-96 30,-43 45,-99 46,-168l269 -98c54,186 27,490 -83,909 -51,197 -87,348 -107,455 -43,235 -56,459 -37,676 19,215 71,443 158,681 19,53 34,93 44,120 10,26 21,52 32,76l-575 209z"/>
   <path class="fil2" d="M5948 7094l3721 -2148 -4 20 -4 20 -3 20 -3 20c-4,27 -8,54 -11,81l-2 20 -4 40 -2 20c-3,34 -5,68 -7,102l-1 20 -1 20 -1 19 0 2 0 21 0 20 0 21 0 21 0 4 1 38 1 21 1 21 1 24 2 32 2 26 2 21 2 21 0 4 2 16 4 34 1 7 0 4 2 17 6 41 0 0 0 4 1 5 5 33 3 21 0 3 3 17 7 37 1 4 0 3 1 6 7 32 5 21 3 12 7 29 5 21 0 2 2 7 9 32 6 20 0 1 1 4 16 53 1 3 0 1 6 19 12 37 1 4 0 0 2 5 20 56 3082 8466 21 56 7 17 15 36 11 26 11 26 13 29 16 34 6 13 27 54 29 54 4 7 25 44 8 14 22 37 8 14 25 39 5 8 6 9 29 43 0 0 29 42 6 9 8 11 24 32 12 16 26 33 8 10 30 37 8 9 38 43 0 0 40 43 6 6 34 35 10 10 30 30 13 12 34 32 6 6 37 34 6 5 0 0 38 33 2 2 21 17 24 19 21 17 22 17 24 18 16 12 29 21 0 0 41 29 0 0 41 28 9 6 9 6 32 21 30 18 11 7 29 17 30 17 14 8 8 4 44 24 1 0 44 22 2 1 25 12 28 13 24 11 21 9 30 13 6 3 38 16 9 3 47 18 1 0 46 17 1 0 30 10 26 9 32 11 10 3 41 13 3 1 40 11 9 2 48 13 31 7 22 5 30 6 20 4 37 7 15 3 40 7 2 0 41 7 9 1 50 7 1 0 49 6 38 4 20 2 34 2 15 1c32,2 63,3 95,4l51 1c49,0 97,-1 146,-4l17 -1 38 -3 4 0 -3082 1779c-891,514 -2041,206 -2555,-685l-4505 -7803c-514,-891 -206,-2041 685,-2555zm9107 9266c32,2 63,3 95,4"/>
   <path class="fil2" d="M1394 11900l3067 -2574c55,218 141,433 258,637l4505 7803c688,1191 2222,1602 3413,915l1595 -921c-45,46 -92,90 -142,133l-4500 3776c-788,661 -1974,558 -2636,-231l-5791 -6902c-661,-788 -558,-1974 231,-2636zm3773 -2442c-9,-20 -17,-40 -25,-61 8,20 16,41 25,61z"/>
  </g>
</svg>
