<?xml version="1.0" encoding="UTF-8"?>
<!DOCTYPE svg PUBLIC "-//W3C//DTD SVG 1.1//EN" "http://www.w3.org/Graphics/SVG/1.1/DTD/svg11.dtd">
<!-- Creator: CorelDRAW X5 -->
<svg xmlns="http://www.w3.org/2000/svg" style="shape-rendering:geometricPrecision; text-rendering:geometricPrecision; image-rendering:optimizeQuality; fill-rule:evenodd; clip-rule:evenodd"
viewBox="0 0 32640 22800"
 xmlns:xlink="http://www.w3.org/1999/xlink">
 <defs>
  <style type="text/css">
   <![CDATA[
    .fil1 {fill:#2B2A29}
    .fil2 {fill:#5B5B5B}
    .fil0 {fill:#FEFEFE}
   ]]>
  </style>
 </defs>
  <g id="Two_x0020_Pair">
   <path class="fil0" d="M896 11427l3419 -2869c50,-814 493,-1590 1250,-2026l4472 -2582c286,-416 699,-750 1207,-935l5550 -2020c508,-185 1039,-194 1525,-60l5085 -897c860,-152 1698,158 2260,749l4464 0c1383,0 2512,1129 2512,2512l0 9059c0,1383 -1129,2512 -2512,2512l-5907 0c-518,0 -1000,-158 -1401,-429l-2788 492c-156,27 -310,40 -463,38l-1469 535c-116,99 -242,190 -379,269l-2451 1415c-133,465 -401,896 -797,1229l-4525 3797c-1059,889 -2650,750 -3539,-310l-5823 -6939c-889,-1059 -750,-2650 310,-3539z"/>
   <path class="fil1" d="M24190 1485l5875 0c1029,0 1871,842 1871,1871l0 9010c0,1029 -842,1871 -1871,1871l-5875 0c-1029,0 -1871,-842 -1871,-1871l0 -9010c0,-1029 842,-1871 1871,-1871zm429 3120c0,172 41,304 122,396 81,92 197,138 347,138 143,0 255,-45 335,-136 81,-91 121,-217 121,-379 0,-181 -39,-319 -119,-412 -79,-93 -197,-140 -354,-140 -143,0 -254,47 -333,140 -80,93 -119,225 -119,394zm978 -1554c-55,-36 -109,-63 -163,-80 -55,-18 -110,-27 -164,-27 -217,0 -379,78 -486,235 -107,157 -167,407 -181,749 105,-76 212,-133 321,-171 108,-38 222,-57 341,-57 270,0 493,82 669,245 175,163 263,370 263,621 0,266 -101,481 -301,645 -201,164 -467,246 -798,246 -367,0 -651,-115 -851,-344 -200,-230 -300,-556 -300,-977 0,-448 112,-803 335,-1063 224,-260 529,-391 917,-391 255,0 464,54 628,163 163,108 245,244 245,405 0,98 -33,179 -99,242 -65,63 -150,95 -254,95 -95,0 -173,-27 -232,-79 -60,-52 -89,-120 -89,-205 0,-62 16,-113 50,-154 34,-42 84,-73 151,-96z"/>
   <path class="fil1" d="M17701 1750l5786 -1020c373,-66 741,-15 1066,127l-363 0c-1376,0 -2499,1123 -2499,2499l0 9010c0,578 199,1112 531,1536l-2307 407c-1013,179 -1989,-504 -2167,-1517l-1564 -8873c-179,-1013 504,-1989 1517,-2167zm965 2998c30,169 93,292 189,369 96,76 218,101 366,75 141,-25 243,-89 306,-192 64,-104 82,-235 54,-394 -31,-179 -94,-307 -189,-386 -94,-78 -219,-103 -373,-76 -141,25 -242,90 -304,195 -62,106 -78,242 -49,409zm693 -1700c-60,-26 -118,-43 -175,-51 -58,-8 -113,-7 -166,2 -214,38 -360,143 -437,316 -78,173 -94,429 -48,769 90,-93 185,-167 286,-224 100,-56 209,-94 326,-115 266,-47 499,-5 701,125 201,131 323,319 366,566 46,262 -15,491 -185,687 -170,197 -417,323 -743,381 -362,64 -661,0 -898,-191 -237,-192 -392,-495 -466,-911 -78,-441 -29,-810 145,-1105 175,-295 453,-477 836,-544 251,-44 466,-27 646,51 179,78 283,198 311,356 17,97 -2,182 -56,255 -53,73 -131,119 -234,137 -94,17 -175,4 -243,-37 -68,-41 -108,-103 -123,-186 -11,-61 -3,-114 23,-161 26,-47 70,-87 132,-121z"/>
   <path class="fil1" d="M11497 3662l4624 -1683c-463,548 -690,1289 -556,2047l1564 8873c142,804 658,1452 1337,1796l-2609 949c-967,352 -2046,-151 -2398,-1118l-3082 -8466c-352,-967 151,-2046 1118,-2398zm2390 4005l7 -3c-11,-23 -21,-46 -30,-70 9,25 16,49 22,73zm160 -1540c13,-103 11,-212 -5,-327 -16,-114 -47,-235 -93,-360 -131,-360 -309,-612 -536,-757 -226,-146 -476,-169 -748,-70 -281,102 -463,279 -548,532 -85,252 -64,553 63,903 76,209 167,377 273,504 106,128 223,210 350,248 -5,-10 -10,-22 -16,-36 -6,-14 -14,-34 -24,-60 -59,-161 -59,-303 -1,-426 58,-123 168,-214 330,-273 136,-49 281,-65 435,-45 154,20 327,75 519,167zm-248 477c-117,-107 -227,-179 -330,-216 -103,-37 -199,-39 -289,-6 -73,27 -123,71 -151,132 -27,62 -28,130 -1,204 29,80 82,135 158,165 76,29 161,27 256,-8 76,-28 145,-65 207,-112 61,-47 111,-100 150,-159zm692 -220c62,39 118,64 167,77 50,12 95,11 134,-3 58,-21 91,-62 98,-123 7,-61 -12,-164 -57,-309l264 -96 22 60c90,247 110,451 61,612 -49,161 -166,276 -353,344 -95,34 -194,44 -297,29 -103,-15 -229,-59 -376,-131 -88,71 -180,134 -277,189 -96,56 -198,103 -307,142 -448,163 -857,162 -1228,-3 -372,-165 -635,-462 -792,-893 -157,-431 -145,-828 34,-1191 180,-363 494,-627 943,-790 448,-163 857,-163 1228,1 371,163 634,458 790,886 77,212 111,420 102,625 -9,205 -62,397 -156,575z"/>
   <path class="fil1" d="M5949 7114l3735 -2156c-82,427 -53,881 106,1318l3082 8466c390,1072 1447,1717 2534,1637l-3080 1779c-891,514 -2041,206 -2556,-685l-4505 -7803c-514,-891 -206,-2041 685,-2556zm3063 3564l15 -9c-23,-29 -45,-60 -64,-94 20,34 36,69 49,103zm-124 -1579c-5,-104 -26,-211 -61,-321 -36,-110 -87,-223 -154,-338 -191,-331 -411,-549 -659,-653 -248,-104 -498,-84 -748,61 -259,149 -407,355 -448,619 -40,263 33,556 219,879 111,193 230,342 356,449 127,107 256,168 388,183 -7,-9 -14,-20 -22,-32 -8,-13 -20,-31 -34,-55 -86,-148 -111,-288 -75,-419 36,-131 129,-240 278,-326 125,-72 266,-113 420,-120 155,-7 335,17 540,74zm-162 513c-134,-85 -255,-137 -362,-156 -108,-18 -203,-3 -286,45 -67,39 -109,91 -126,156 -16,66 -5,132 35,201 43,74 104,119 184,135 80,16 163,-2 251,-52 70,-41 132,-90 185,-146 52,-57 92,-118 120,-182zm643 -337c67,28 127,43 178,47 52,3 96,-5 132,-26 54,-31 79,-77 75,-138 -4,-61 -41,-159 -110,-294l243 -140 32 55c131,227 187,424 167,592 -20,167 -116,300 -288,400 -87,50 -183,77 -288,80 -105,3 -236,-18 -393,-64 -74,85 -154,163 -240,234 -85,72 -177,136 -278,194 -412,238 -816,308 -1209,210 -395,-98 -706,-345 -935,-742 -229,-397 -287,-790 -173,-1179 114,-389 377,-703 791,-942 412,-238 816,-309 1210,-212 394,96 704,341 932,735 113,195 182,394 209,598 27,203 8,401 -54,593z"/>
   <path class="fil2" d="M1394 11918l3067 -2574c55,219 141,434 259,639l4505 7803c688,1191 2222,1602 3413,915l1589 -918c-43,44 -89,86 -137,127l-4500 3776c-788,661 -1974,558 -2636,-231l-5791 -6902c-661,-788 -558,-1974 231,-2636zm3783 -2419c-12,-27 -24,-55 -35,-83 11,28 22,55 35,83z"/>
  </g>
</svg>
